<?xml version="1.0" encoding="utf-8"?>
<!-- Generator: Adobe Illustrator 19.0.0, SVG Export Plug-In . SVG Version: 6.00 Build 0)  -->
<svg version="1.1" id="Layer_1" xmlns="http://www.w3.org/2000/svg" xmlns:xlink="http://www.w3.org/1999/xlink" x="0px" y="0px"
	 viewBox="0 0 275 72" style="enable-background:new 0 0 275 72;" xml:space="preserve">
<style type="text/css">
	.st0{opacity:0.9;}
	.st1{opacity:0.9;fill:none;stroke:#000000;stroke-width:2;stroke-miterlimit:10;}
</style>
<g id="XMLID_4_">
	<g id="XMLID_1_" class="st0">
		<path id="XMLID_35_" d="M13.6,6.6c-2.6,0.1-3.1,0.5-3.1,3.3v19.5c0,2.4,0.4,2.7,2.4,2.7h1.9c3.5,0,6.2-3.4,7-8.5h0.9
			c-0.1,0.9-0.1,2.1-0.1,3.4c0,1.2,0,3.7,0.3,6.1c-2.6-0.1-6.2-0.1-8.8-0.1c-2.6,0-8.3,0-12.5,0.1v-0.8c2.4-0.1,2.9-0.5,2.9-3.3v-19
			c0-2.8-0.4-3.2-2.9-3.3V5.9C2.8,5.9,5.1,6,7.5,6c2.2,0,4.6,0,6-0.1V6.6z"/>
		<path id="XMLID_37_" d="M36.5,10.5c-2.5,0.1-2.9,0.5-2.9,3.3v15.2c0,2.8,0.4,3.2,2.9,3.3V33c-1.3-0.1-3.6-0.1-5.7-0.1
			c-2.4,0-4.7,0-5.9,0.1v-0.8c2.5-0.1,2.9-0.5,2.9-3.3V13.8c0-2.8-0.5-3.2-2.9-3.3V9.7c1.3,0.1,3.6,0.1,5.9,0.1c2,0,4.4,0,5.7-0.1
			V10.5z"/>
		<path id="XMLID_39_" d="M63.2,10.5c-2.4,0.3-2.9,1.1-2.9,4.4v18.2c-0.3,0-0.7,0-1,0c-0.4,0-0.7,0-1,0L42.9,14v13.8
			c0,3.3,0.6,4,3.9,4.4V33c-1.1-0.1-2.8-0.1-4.4-0.1c-1.2,0-2.5,0-3.3,0.1v-0.8c2.5-0.3,2.9-1.1,2.9-4.4V13.8c0-2.8-0.4-3.2-2.9-3.3
			V9.7c0.8,0.1,2.1,0.1,3.3,0.1c1.7,0,3.4,0,4.7-0.1l12.2,15.2v-10c0-3.3-0.6-4-3.9-4.4V9.7c1.1,0.1,2.8,0.1,4.4,0.1
			c1.2,0,2.5,0,3.3-0.1V10.5z"/>
		<path id="XMLID_41_" d="M65.4,9.7c1,0.1,2.5,0.1,4.1,0.1c0.4,0,0.7,0,1,0c2,0,4.8-0.1,6.5-0.1c9,0,13.4,4,13.4,11.3
			c0,7.2-5,12-13.7,12c-1.3,0-4.2-0.1-6-0.1c-2,0-4.1,0-5.2,0.1v-0.8c2.5-0.1,2.9-0.5,2.9-3.3V13.8c0-2.8-0.5-3.2-2.9-3.3V9.7z
			 M74.1,29c0,2.7,0.4,3.3,2.4,3.3c6,0,7.7-3.9,7.7-11.1c0-7.2-2-10.8-7.7-10.8c-2,0-2.4,0.6-2.4,3.3V29z"/>
		<path id="XMLID_44_" d="M112.3,29.8c0.8,1.8,1.7,2.4,2.4,2.5V33c-1.2-0.1-3.2-0.1-5-0.1c-2.5,0-4.8,0-6,0.1v-0.8
			c1.6-0.1,2.5-0.4,2.5-1.5c0-0.4-0.2-1-0.5-1.8l-1.9-4.4h-8l-0.4,1c-0.7,1.7-1.1,3-1.1,3.9c0,1.9,1.3,2.5,3.3,2.6V33
			c-1.5-0.1-2.8-0.1-4.4-0.1c-1,0-2.4,0-3.1,0.1v-0.8c1.3-0.3,2.2-1.5,3.4-4.1l8.1-18.5c0.3,0,0.6,0,0.9,0s0.6,0,0.9,0L112.3,29.8z
			 M99.7,15.5L96,23.9h7.4L99.7,15.5z"/>
		<path id="XMLID_47_" d="M146.1,33c-0.1-1.6-0.4-2.3-0.9-2.3c-0.2,0-0.5,0.1-0.8,0.3c-1.9,1.3-3.8,2.5-7.1,2.5
			c-8.1,0-13.5-5.1-13.5-13.9c0-8.6,5.6-14.3,13.6-14.3c3.4,0,5.4,1.2,7,2.5c0.3,0.2,0.5,0.3,0.7,0.3c0.5,0,0.8-0.7,1-2.3h0.9
			c-0.1,2-0.1,4.6-0.1,9.3h-0.9c-0.4-3.5-0.9-5.4-2.9-6.9c-1.3-1.2-3-1.9-4.8-1.9c-5.5,0-7.6,6.4-7.6,13.2c0,6.9,2.3,13.1,7.8,13.1
			c1.7,0,3.5-0.6,4.8-1.9c2-1.5,2.5-3.7,2.8-7.4h0.9c0,4.9,0,7.6,0.1,9.7H146.1z"/>
		<path id="XMLID_49_" d="M171,29.8c0.8,1.8,1.7,2.4,2.4,2.5V33c-1.2-0.1-3.2-0.1-5-0.1c-2.5,0-4.8,0-6,0.1v-0.8
			c1.6-0.1,2.5-0.4,2.5-1.5c0-0.4-0.2-1-0.5-1.8l-1.9-4.4h-8l-0.4,1c-0.7,1.7-1.1,3-1.1,3.9c0,1.9,1.3,2.5,3.3,2.6V33
			c-1.5-0.1-2.8-0.1-4.4-0.1c-1,0-2.4,0-3.1,0.1v-0.8c1.3-0.3,2.2-1.5,3.4-4.1l8.1-18.5c0.3,0,0.6,0,0.9,0c0.3,0,0.6,0,0.9,0
			L171,29.8z M158.5,15.5l-3.7,8.4h7.4L158.5,15.5z"/>
		<path id="XMLID_52_" d="M199.3,31.4c-1.1,1.3-2.5,2.2-4.9,2.2c-3.1,0-4.5-1.4-4.9-3.1l-1.1-4.5c-0.6-3-1.7-3.6-3.8-3.6h-1.3v6.6
			c0,2.8,0.4,3.2,2.9,3.3V33c-1.5-0.1-3.9-0.1-6.2-0.1c-2.2,0-4.2,0-5.4,0.1v-0.8c2.5-0.1,2.9-0.5,2.9-3.3V13.8
			c0-2.8-0.5-3.2-2.9-3.3V9.7c1.2,0.1,3.3,0.1,5.1,0.1c2.5,0,5.1-0.1,6.1-0.1c7.1,0,10.2,2.3,10.2,5.9c0,2.7-1.9,5.8-8.8,6.5
			c0.4,0,0.7,0.1,1.1,0.1c3.3,0.4,5.7,1.3,6.4,4.1l0.8,3.4c0.4,1.5,0.8,2,1.6,2c0.6,0,1.2-0.4,1.6-0.8L199.3,31.4z M184.9,21.6
			c4.1,0,4.9-2.5,4.9-5.6c0-3.6-1.2-5.5-4.6-5.5c-1.6,0-2,0.7-2,3.3v7.8H184.9z"/>
		<path id="XMLID_55_" d="M199.8,18.3c0.1-0.8,0.1-2.1,0.1-3.4c0-1-0.1-3.1-0.3-5.2c3.3,0.1,8,0.1,11.3,0.1c3.3,0,8.1,0,11.5-0.1
			c-0.2,2.1-0.3,4.2-0.3,5.2c0,1.3,0.1,2.6,0.1,3.4h-0.9c-1-5.7-2.6-7.7-6.2-7.7H214v18c0,3.1,0.7,3.6,3.9,3.7V33
			c-1.4-0.1-4.8-0.1-6.9-0.1c-2.3,0-5.5,0-6.7,0.1v-0.8c3.2-0.1,3.9-0.6,3.9-3.7v-18h-1.2c-3.6,0-5.2,2-6.2,7.7H199.8z"/>
		<path id="XMLID_57_" d="M244.9,25.2c-0.1,0.7-0.1,1.7-0.1,2.8c0,1,0.1,3,0.3,5c-2.5-0.1-5.9-0.1-8.4-0.1c-2.5,0-7.9,0-11.9,0.1
			v-0.8c2.5-0.1,2.9-0.5,2.9-3.3V13.8c0-2.8-0.5-3.2-2.9-3.3V9.7c4,0.1,9.4,0.1,11.9,0.1c2.2,0,5.4,0,7.6-0.1
			c-0.2,1.8-0.3,3.7-0.3,4.6c0,0.9,0,1.8,0.1,2.4h-0.9c-0.8-4.5-2.7-6.1-5.9-6.1h-1.4c-1.9,0-2.4,0.3-2.4,2.5v7.8h1.8
			c2.7,0,3.6-2.5,3.9-4.1h0.9c-0.1,1.3-0.1,2.2-0.1,3c0,0.6,0,1.1,0,1.5c0,1,0,2.2,0.2,4.5h-0.9c-0.3-2.1-1.3-4.1-4-4.1h-1.8v8
			c0,2.2,0.6,2.5,2.4,2.5h1.6c3.5,0,5.6-1.7,6.4-6.9H244.9z"/>
		<path id="XMLID_59_" d="M272.9,31.4c-1.1,1.3-2.5,2.2-4.9,2.2c-3.1,0-4.5-1.4-4.9-3.1l-1.1-4.5c-0.6-3-1.7-3.6-3.8-3.6h-1.3v6.6
			c0,2.8,0.4,3.2,2.9,3.3V33c-1.5-0.1-3.9-0.1-6.2-0.1c-2.2,0-4.2,0-5.4,0.1v-0.8c2.5-0.1,2.9-0.5,2.9-3.3V13.8
			c0-2.8-0.5-3.2-2.9-3.3V9.7c1.2,0.1,3.3,0.1,5.1,0.1c2.5,0,5.1-0.1,6.1-0.1c7.1,0,10.2,2.3,10.2,5.9c0,2.7-1.9,5.8-8.8,6.5
			c0.4,0,0.7,0.1,1.1,0.1c3.3,0.4,5.7,1.3,6.4,4.1l0.8,3.4c0.4,1.5,0.8,2,1.6,2c0.6,0,1.2-0.4,1.6-0.8L272.9,31.4z M258.5,21.6
			c4.1,0,4.9-2.5,4.9-5.6c0-3.6-1.2-5.5-4.6-5.5c-1.6,0-2,0.7-2,3.3v7.8H258.5z"/>
	</g>
	<line id="XMLID_2_" class="st1" x1="32.1" y1="44.4" x2="240" y2="44.4"/>
	<g id="XMLID_3_" class="st0">
		<path id="XMLID_6_" d="M84.4,65.4c-0.4,0.6-0.9,1-1.7,1c-1.1,0-1.6-0.6-1.8-1.3L80.4,63c-0.3-1.3-1-1.6-2.1-1.6h-1v3
			c0,1.2,0.2,1.4,1.4,1.5v0.3c-0.5,0-1.4,0-2.2,0c-0.9,0-1.7,0-2.2,0v-0.3c1.2,0,1.4-0.2,1.4-1.5v-6.7c0-1.3-0.2-1.4-1.4-1.5v-0.3
			c0.5,0,1.3,0,2.1,0c1,0,2,0,2.4,0c2.6,0,3.9,1.1,3.9,2.6c0,1.1-0.7,2.5-3.4,2.9c0.2,0,0.4,0,0.6,0.1c1.1,0.2,1.9,0.6,2.2,1.9
			l0.4,1.5c0.2,0.8,0.4,1.1,0.7,1.1c0.3,0,0.7-0.3,0.9-0.6L84.4,65.4z M78.5,61c2.1,0,2.6-1.1,2.6-2.5c0-1.6-0.7-2.4-2.7-2.4
			c-0.9,0-1.1,0.3-1.1,1.5V61H78.5z"/>
		<path id="XMLID_9_" d="M93.6,64.7c0.4,0.8,0.8,1.1,1.2,1.1v0.3c-0.5,0-1.2,0-1.8,0c-0.9,0-1.7,0-2.2,0v-0.3c0.8,0,1.2-0.2,1.2-0.6
			c0-0.2-0.1-0.5-0.2-0.8l-0.9-1.9h-4.2l-0.6,1.3c-0.2,0.4-0.3,0.8-0.3,1.1c0,0.6,0.4,0.9,1.3,1v0.3c-0.3,0-0.9,0-1.5,0
			c-0.4,0-1.2,0-1.5,0v-0.3c0.6-0.2,1.1-0.8,1.4-1.6l3.8-8.5h0.3L93.6,64.7z M88.9,57.8l-1.9,4.3h3.9L88.9,57.8z"/>
		<path id="XMLID_12_" d="M105.8,56.1c-1.2,0.1-1.4,0.4-1.4,1.6v8.5h-0.4l-6.8-9.4v7.4c0,1.2,0.2,1.6,1.5,1.6v0.3
			c-0.4,0-1.2,0-1.7,0c-0.6,0-1.2,0-1.6,0v-0.3c1.2,0,1.4-0.4,1.4-1.6v-6.6c0-1.2-0.2-1.4-1.4-1.5v-0.3c0.4,0,1,0,1.6,0
			c0.6,0,1.1,0,1.6,0l5.4,7.6v-5.6c0-1.2-0.2-1.6-1.5-1.6v-0.3c0.4,0,1.2,0,1.7,0c0.6,0,1.2,0,1.6,0V56.1z"/>
		<path id="XMLID_14_" d="M115.7,66.2c-0.1-0.7-0.2-1-0.4-1c-0.1,0-0.2,0.1-0.3,0.2c-0.7,0.6-1.5,1.1-2.8,1.1c-3,0-5.1-1.9-5.1-5.3
			c0-3.3,2.1-5.5,5.1-5.5c1.2,0,1.9,0.5,2.6,1.1c0.1,0.1,0.2,0.2,0.3,0.2c0.2,0,0.4-0.3,0.4-1h0.4c-0.1,0.8-0.1,1.8-0.1,3.6h-0.4
			c-0.2-1.2-0.4-1.6-0.8-2.2c-0.6-0.9-1.6-1.3-2.5-1.3c-2,0-3.3,1.9-3.3,5.1c0,3.3,1.5,5,3.4,5c1,0,2-0.4,2.6-1.3
			c0.4-0.6,0.6-1.1,0.8-2.4h0.4c0,1.9,0,3,0.1,3.8H115.7z"/>
		<path id="XMLID_16_" d="M129,56.1c-1.2,0.1-1.4,0.2-1.4,1.5v6.7c0,1.2,0.2,1.4,1.4,1.5v0.3c-0.5,0-1.3,0-2.2,0c-0.8,0-1.6,0-2.2,0
			v-0.3c1.2,0,1.4-0.2,1.4-1.5V61h-5.2v3.4c0,1.2,0.2,1.4,1.4,1.5v0.3c-0.5,0-1.4,0-2.2,0c-0.9,0-1.7,0-2.2,0v-0.3
			c1.2,0,1.4-0.2,1.4-1.5v-6.7c0-1.2-0.2-1.4-1.4-1.5v-0.3c0.5,0,1.3,0,2.2,0c0.8,0,1.6,0,2.2,0v0.3c-1.2,0.1-1.4,0.2-1.4,1.5v3h5.2
			v-3c0-1.2-0.2-1.4-1.4-1.5v-0.3c0.5,0,1.4,0,2.2,0c0.9,0,1.7,0,2.2,0V56.1z"/>
		<path id="XMLID_18_" d="M140.2,60.6c2.6,0.3,3.3,1.5,3.3,2.7c0,1.6-1.5,2.8-3.9,2.8c-0.5,0-1.4,0-2.8,0c-0.8,0-1.6,0-2.1,0v-0.3
			c1.2,0,1.4-0.2,1.4-1.5v-6.7c0-1.3-0.2-1.4-1.4-1.5v-0.3c0.5,0,1.3,0,2.1,0c1,0,2,0,2.4,0c2.3,0,3.4,1,3.4,2.3
			C142.6,59.2,142,60.1,140.2,60.6L140.2,60.6z M138.6,60.6c1.9,0,2.3-1,2.3-2.3c0-1.4-0.6-2.2-2.2-2.2c-0.9,0-1.1,0.3-1.1,1.5v3
			H138.6z M137.6,64.3c0,1.2,0.2,1.4,1.1,1.4c2.1,0,3-0.9,3-2.5c0-1.5-0.8-2.4-2.9-2.4h-1.3V64.3z"/>
		<path id="XMLID_22_" d="M154.9,65.4c-0.4,0.6-0.9,1-1.7,1c-1.1,0-1.6-0.6-1.8-1.3l-0.5-2.1c-0.3-1.3-1-1.6-2.1-1.6h-1v3
			c0,1.2,0.2,1.4,1.4,1.5v0.3c-0.5,0-1.4,0-2.2,0c-0.9,0-1.7,0-2.2,0v-0.3c1.2,0,1.4-0.2,1.4-1.5v-6.7c0-1.3-0.2-1.4-1.4-1.5v-0.3
			c0.5,0,1.3,0,2.1,0c1,0,2,0,2.4,0c2.6,0,3.9,1.1,3.9,2.6c0,1.1-0.7,2.5-3.4,2.9c0.2,0,0.4,0,0.6,0.1c1.1,0.2,1.9,0.6,2.2,1.9
			l0.4,1.5c0.2,0.8,0.4,1.1,0.7,1.1c0.3,0,0.7-0.3,0.9-0.6L154.9,65.4z M148.9,61c2.1,0,2.6-1.1,2.6-2.5c0-1.6-0.7-2.4-2.7-2.4
			c-0.9,0-1.1,0.3-1.1,1.5V61H148.9z"/>
		<path id="XMLID_25_" d="M166,60.9c0,3.3-2.2,5.5-5.2,5.5c-3.1,0-5.2-1.9-5.2-5.3c0-3.3,2.2-5.5,5.2-5.5
			C163.9,55.6,166,57.5,166,60.9z M157.3,61c0,3.1,1.6,5.1,3.6,5.1c2.1,0,3.5-2.1,3.5-5.1c0-3.1-1.6-5.1-3.6-5.1
			C158.6,55.9,157.3,58,157.3,61z"/>
		<path id="XMLID_28_" d="M176.4,64.8c0.4,0.5,0.8,0.8,1.3,1v0.3c-0.5,0-1.3,0-1.9,0c-0.5,0-1.2,0-2.2,0v-0.3c0.8,0,1-0.1,1-0.3
			c0-0.1-0.1-0.3-0.2-0.4l-2.3-3.2c-0.4-0.6-0.8-0.9-1.8-0.9v3.4c0,1.2,0.2,1.4,1.4,1.5v0.3c-0.5,0-1.4,0-2.2,0c-0.9,0-1.7,0-2.2,0
			v-0.3c1.2,0,1.4-0.2,1.4-1.5v-6.7c0-1.2-0.2-1.4-1.4-1.5v-0.3c0.5,0,1.3,0,2.2,0c0.8,0,1.6,0,2.2,0v0.3c-1.2,0.1-1.4,0.2-1.4,1.5
			v3.1c0.7,0,1.4-0.3,2.3-1.1l2-2.1c0.3-0.3,0.4-0.5,0.4-0.8c0-0.3-0.3-0.6-1-0.6v-0.3c0.6,0,1.4,0,2,0c0.5,0,0.9,0,1.2,0v0.3
			c-0.8,0.1-1.2,0.4-2.1,1.2l-2.7,2.7L176.4,64.8z"/>
		<path id="XMLID_30_" d="M187.1,62.9c0,0.3,0,0.7,0,1.2c0,0.4,0,1.2,0.1,2c-1.1,0-2.6,0-3.7,0c-1,0-3.1,0-4.8,0v-0.3
			c1.2,0,1.4-0.2,1.4-1.5v-6.7c0-1.2-0.2-1.4-1.4-1.5v-0.3c1.6,0,3.8,0,4.8,0c1,0,2.4,0,3.4,0c-0.1,0.7-0.1,1.5-0.1,1.8
			c0,0.4,0,0.8,0,1.1h-0.4c-0.2-1.9-0.7-2.5-2.1-2.5H183c-1.2,0-1.4,0.2-1.4,1.4v3.2h1.4c1.2,0,1.3-1.1,1.4-1.7h0.4
			c0,0.6-0.1,1-0.1,1.3c0,0.2,0,0.4,0,0.6c0,0.5,0,0.9,0.1,1.9h-0.4c-0.1-0.8-0.3-1.7-1.5-1.7h-1.4v3.2c0,1.2,0.2,1.4,1.4,1.4h1.2
			c1.7,0,2.3-0.7,2.5-2.8H187.1z"/>
		<path id="XMLID_32_" d="M198.8,65.4c-0.4,0.6-0.9,1-1.7,1c-1.1,0-1.6-0.6-1.8-1.3l-0.5-2.1c-0.3-1.3-1-1.6-2.1-1.6h-1v3
			c0,1.2,0.2,1.4,1.4,1.5v0.3c-0.5,0-1.4,0-2.2,0c-0.9,0-1.7,0-2.2,0v-0.3c1.2,0,1.4-0.2,1.4-1.5v-6.7c0-1.3-0.2-1.4-1.4-1.5v-0.3
			c0.5,0,1.3,0,2.1,0c1,0,2,0,2.4,0c2.6,0,3.9,1.1,3.9,2.6c0,1.1-0.7,2.5-3.4,2.9c0.2,0,0.4,0,0.6,0.1c1.1,0.2,1.9,0.6,2.2,1.9
			l0.4,1.5c0.2,0.8,0.4,1.1,0.7,1.1c0.3,0,0.7-0.3,0.9-0.6L198.8,65.4z M192.9,61c2.1,0,2.6-1.1,2.6-2.5c0-1.6-0.7-2.4-2.7-2.4
			c-0.9,0-1.1,0.3-1.1,1.5V61H192.9z"/>
	</g>
</g>
<g id="XMLID_5_">
</g>
<g id="XMLID_62_">
</g>
<g id="XMLID_63_">
</g>
<g id="XMLID_64_">
</g>
<g id="XMLID_65_">
</g>
<g id="XMLID_66_">
</g>
</svg>
