<?xml version="1.0" encoding="utf-8"?>
<!-- Generator: Adobe Illustrator 19.0.0, SVG Export Plug-In . SVG Version: 6.00 Build 0)  -->
<svg version="1.1" id="Layer_1" xmlns="http://www.w3.org/2000/svg" xmlns:xlink="http://www.w3.org/1999/xlink" x="0px" y="0px"
	 viewBox="0 0 374 164" style="enable-background:new 0 0 374 164;" xml:space="preserve">
<style type="text/css">
	.st0{fill:#FFFFFF;}
</style>
<g id="XMLID_4_">
	<path id="XMLID_67_" class="st0" d="M0,76c15.5,0.7,29.2-4,40.5-15c-0.8,0.3-1.7,0.6-2.5,1c-0.7,0.3-1.4,0.7-2.7,1.3
		c0.5-5.5,4-8.7,7.4-11.2c3.9-2.9,8.4-4.9,12.7-7.1c3.1-1.6,5.5-3.3,7.3-6.8c8.7-17.1,23.4-27.1,41.5-31.8
		c10.4-2.7,21.2-3.8,31.9-5.1c6.2-0.8,12.5-0.9,18.8-1c7.8-0.2,14.8,2.1,21.6,6.5c9.7,6.2,19.6,12.4,31.5,13.9
		c5,0.6,10.1,1.3,15.2,1.5c7.2,0.3,14.4-0.3,21.5,0.2c11.3,0.8,22.1-2.4,33.2-3.8c9.9-1.3,19.7-0.8,28.2,5.7
		c9.9-11.7,29.4-13.5,38.2-3c2.6,3.1,3.5,7.9,4.8,12c1.2,3.6,2.2,7.3,6.8,8.8c0.2-1.2,0.4-2.4,0.5-2.6c6,2.3,11.9,4.6,17.8,6.9
		c0,0.7,0,1.3,0,2c-1,0.1-1.9,0.3-2.9,0.4c-6.1,0.7-11.5,3-17.6-3c-4.8-4.8-7.2-9.9-9-15.6c-1.5-4.8-4.5-7.2-8.9-8.8
		c-7.5-2.6-13.5,0.7-18.8,5.1c-2,1.7-3.6,4.5-1.3,8.6c4.5,7.8,10.1,15.8,9.2,25.4c-0.6,5.6-3.2,11.1-5.6,16.4
		c-4.3,9.7-3.3,14.9,4.7,21.1c3.9,3,6.1,7.5,4.9,12.2c-2.1,8.3,0.5,14.9,5.4,21.3c1.8,2.3,2.3,5.5,3.5,8.3c-0.4,0.3-0.7,0.5-1.1,0.8
		c-4.4-2.4-5.5-0.1-5.6,3.5c-0.1,1.8,0.7,4.5-0.3,5.3c-4.4,3.7-2.9,8-1.6,12.4c-1.8,0.9-3.4,1.8-5.1,2.7c-4,0-8,0-12,0
		c-1.4-0.7-2.8-1.4-4.2-2c-4.7-2.1-7.1-4.7-1.6-9.8c4-3.9,7.1-8.7,10.3-13.3c1-1.4,1.6-3.6,1.3-5.1c-2.8-11.8-7.3-22.6-18.5-29.1
		c-3.5-2-6.8-4.4-10.2-6.6c-0.4-0.4-0.8-0.8-1.1-1.1c-2.3-5.4-7.7-6.1-14.1-1.8l0.2-0.1c-1.4,0.4-2.9,0.5-4.2,1.1
		c-12.8,5.9-26,9.7-40.3,9c-10.4-0.5-20.8-0.1-31.3-0.1c-0.5-1.3-1.2-3.2-2.4-6.3c-2.2,10.2-9.1,13.6-16.7,16.3
		c-1.1,0.4-2.4,0.5-3.2,1.2c-1.1,1-2.7,2.5-2.6,3.7c0.1,1.1,2.1,2.8,3.3,2.9c2.9,0.2,5.8-0.4,8.7-0.7c2.1-0.2,5.5-1.3,6-0.5
		c3,4.4,6,1.7,8.9,0.6c4.3-1.7,8.4-1.3,11.2,2.1c3.6,4.5,6.8,9.5,9.4,14.7c1.2,2.5,0.1,4.7-3.9,3.6c-3.6-1-7.4-1.1-11.2-1.2
		c-2.5-0.1-5.1,0.4-7.7,0.7c-2,0.2-4.2-0.2-5.8,0.6c-4.8,2.3-8.4,1.9-12.3-2.1c-5.1-5.2-11.1-9.1-18.9-5c-0.5,0.3-1.3,0.4-1.9,0.4
		c-8.9-0.8-14.9-12.7-10.1-20.4c5.5-8.9,3.4-20.5-2.9-25.1c-2.1-1.5-4.3-3-6.5-4.3c-4.1-2.3-5.4-5.4-3.5-9.8
		c1.9-4.3,3.7-8.7,5.4-13.1c0.4-1.1,0.1-2.5,0.1-3.4c-2.1,3.6-3.5,7.4-6,10.1c-5.7,6.1-5.1,12.1,1.9,17.1c7.3,5.2,13.3,10.8,11.8,21
		c-0.8,5.7-3.9,11.1-8,12c-1-1-2.1-2.1-3.1-3.1c-1.2-1-2.4-2.1-3.6-3.1c-4.8-4.1-9.7-8.1-14.3-12.4c-3-2.8-5.3-6.3-8.3-9.1
		c-1.1-1-3.3-1.1-5-1.1c-0.6,0-1.8,1.8-1.6,2.6c0.9,4.4,2.2,8.6,3.3,12.8c-2.2,1.6-6.6,3.3-8,6.3c-2.1,4.4-4.7,4.1-8.3,3.5
		c-2.6-0.4-5.3-0.7-7.9-0.5c-3.7,0.3-6.1-0.8-8-4.3c-1.3-2.6-3.4-5.2-5.8-6.9c-5.6-3.9-11.6-7.2-17.4-11c-1.3-0.8-2.9-2.5-2.9-3.7
		c0.1-5.5-2.6-8.5-8.3-9.7c2.1-1.7,3.9-3.1,5.6-4.5c1.8-1.4,3.5-2.8,5.3-4.2c-1.4-0.4-2.3-0.2-3.1,0.3C41.3,77.5,33.1,83,22.5,83.3
		C14.4,83.5,6.7,83.3,0,78C0,77.3,0,76.6,0,76z"/>
	<path id="XMLID_58_" class="st0" d="M289.1,98c0.3,3.6-1.5,5.3-4.9,4.9c-5.4-0.7-8.4,2.6-10.3,6.7c-2.3,5.1-3.8,10.7-6,15.9
		c-0.6,1.4-2.2,2.9-3.7,3.3c-3.2,1-6,1.6-4.4,6.1c1,2.6-0.4,4.4-3.2,4.9c-5.7,1.1-11.3,1.2-16.8-1c-4.2-1.7-7.3-4.2-7.9-8.9
		c4.2-4.2,12.3-3.9,13.4-11.9c3.7,1.7,5.5,0,8.4-2.9c6.8-6.7,11.1-16,20.2-20.3c0,0-0.2,0.1-0.2,0.1c4.9-1.1,9.7-1.3,14.1,1.8
		C288.3,97.2,288.7,97.6,289.1,98z"/>
	<path id="XMLID_57_" class="st0" d="M141.1,120c1.2,0.9,2.4,1.9,2.7,2.2c0,5.5,0.2,10.6-0.1,15.6c-0.1,1.2-2,2.2-3.3,3.7
		c2.3,4.2,7.6,7.7,5,14.6c-3.7,1-7.8,2.6-12.1,3.1c-3.2,0.3-6.6-0.4-9.7-1.5c-2.8-1-3.3-3.5-1.5-6c2.8-4,5.2-8,5.2-13.3
		c0-2.9,3-5.6,4.3-8.6c1.7-3.8,2.9-7.8,4.5-11.6c0.2-0.6,1.2-0.8,1.8-1.2C139,117.9,140.1,119,141.1,120z"/>
</g>
<g id="XMLID_15_">
</g>
<g id="XMLID_16_">
</g>
<g id="XMLID_17_">
</g>
<g id="XMLID_18_">
</g>
<g id="XMLID_19_">
</g>
<g id="XMLID_20_">
</g>
</svg>
