<?xml version="1.0" encoding="utf-8"?>
<!-- Generator: Adobe Illustrator 19.0.0, SVG Export Plug-In . SVG Version: 6.00 Build 0)  -->
<svg version="1.1" id="Layer_1" xmlns="http://www.w3.org/2000/svg" xmlns:xlink="http://www.w3.org/1999/xlink" x="0px" y="0px"
	 viewBox="0 0 300 198.8" style="enable-background:new 0 0 300 198.8;" xml:space="preserve">
<style type="text/css">
	.st0{fill:#323133;}
</style>
<path id="XMLID_15_" class="st0" d="M140,0.1c13.9,2.6,23.8,11.4,33,21.4c6.1,6.6,13.6,8.1,22,5.1c8.6-3.1,17.1-3.3,25.6,0.5
	c6.1,2.7,12.4,2.8,18.8,1.1c9.7-2.5,18.7-6.4,26.9-12.2c9.8-6.9,20.7-9.3,32.5-7.7c0.3,0,0.6,0.3,1.4,0.7c-1.6,0.6-2.7,1-3.8,1.3
	c-8.8,2.7-16.8,6.8-23.5,13c-10.4,9.7-22.2,15.7-36.6,16.2c-1.8,0.1-3.9-0.1-3.7,2.6c0.2,2.9,2.5,2,4.3,2.1c2.9,0.1,5.7,0.2,8.5,0.6
	c1.9,0.3,4.1,0.9,3.7,3.7c-0.3,2.8-0.5,5.8-3.7,6.8c-1.8,0.6-4,0.7-5.9,0.5c-4.4-0.4-7.7,1.3-10,4.7c-2.2,3.4-1,6.6,1.2,9.7
	c4.6,6.6,4.4,12.5,0.2,18.5c-3.8,5.4-9,6.9-15.2,5.6c-6.1-1.3-7.5-0.8-10.5,4.8c-5.5,10-10.9,20-16.3,30c-2.5,4.7-6.4,7.2-11.8,7.3
	c-7.6,0.1-11.1,3-12.1,10.4c-0.7,5.3-1.4,10.5-4.1,15.4c-2.3,4.1-2.5,8.9-1,13.5c1.9,5.8,3.9,11.6,6.1,17.3c1.4,3.6,1.1,4.7-2.7,5.3
	c-2.2,0.3-4.5,0.3-6.7,0.3c-2.1,0-3.7-0.5-3.7-3.1c0-0.7-0.7-1.7-1.4-2.1c-3.8-2.3-4.9-5.8-5-9.9c-0.5-12.4-1-24.8-1.4-37.2
	c-0.1-1.4,0.1-2.8,0-4.1c-0.6-14.2-8.7-19.8-21.9-15.7c-12.3,3.8-24.3,4.1-36.7,2.3c-2.1-0.3-4.1-1.1-6-1.9
	c-5.9-2.4-11.7-5.1-17.7-7.3c-1.8-0.6-4.3-0.4-6.1,0.4c-17.7,8.3-26,28.9-19.1,47.2c2.6,6.8,5.3,13.5,7.9,20.3c0.5,1.4,1,2.9,1,4.3
	c0,2.4-0.9,4-3.8,3.8c-3.1-0.2-6.3-0.3-9.4,0c-3.4,0.4-5.3-1.1-6-4.1c-1.4-6.3-2.5-12.7-3.8-19c-0.3-1.3-1-2.5-1.6-3.8
	c-1,0.6-2,1.5-3.2,1.9c-1,0.3-2.8,0.7-3.2,0.2c-1.7-2.3-3.5-4.7-4.4-7.3c-3.9-11.9-4.7-23.9-1.4-36.3c3.8-14.3,2.2-28.2-4.3-41.7
	C2.9,80.7,1.7,75.3,0,70.1c0-3.8,0-7.5,0-11.3c1.5-4.8,2.4-9.7,6.4-13.6c11.5-10.9,24.9-14.6,40.1-10.7c18.1,4.6,36.3,7.9,55,5.9
	c18.7-2,37.4-2.8,56.2-1.3c1.4,0.1,2.8,0,4.8,0c-1.2-1.7-1.9-2.8-3.5-5.1c4.9-0.3,8.8-0.6,11.7-0.8c-2.7-2.8-5.8-5.7-8.6-8.8
	c-8.1-9-18-15.1-29.9-17.7c-4.6-1-9.4-1.4-14.1-2.1c-0.1-0.3-0.2-0.6-0.2-0.9c4.1-1.2,8.2-2.5,12.3-3.7C133.4,0.1,136.7,0.1,140,0.1
	z M19.3,102.6c-0.3,1.4-0.6,1.9-0.5,2.3c1.4,5.2,0.1,10-1.7,15c-2.4,6.7-0.1,13,2.8,19.5c1.2-4.1,2.3-7.6,3.2-11.1
	c1.9-7.5,1.7-14.8-1.3-22C21.4,105.1,20.5,104.2,19.3,102.6z"/>
<g id="XMLID_2_">
</g>
<g id="XMLID_18_">
</g>
<g id="XMLID_19_">
</g>
<g id="XMLID_20_">
</g>
<g id="XMLID_21_">
</g>
<g id="XMLID_22_">
</g>
</svg>
