<?xml version="1.0" encoding="utf-8"?>
<!-- Generator: Adobe Illustrator 19.0.0, SVG Export Plug-In . SVG Version: 6.00 Build 0)  -->
<svg version="1.1" id="Layer_1" xmlns="http://www.w3.org/2000/svg" xmlns:xlink="http://www.w3.org/1999/xlink" x="0px" y="0px"
	 viewBox="0 0 250.3 525.5" style="enable-background:new 0 0 250.3 525.5;" xml:space="preserve">
<style type="text/css">
	.st0{fill:#FFFFFF;}
</style>
<path id="XMLID_19_" class="st0" d="M174.3,499.3c-3.5,0.8-8,1.7-12.5,2.9c-9.5,2.6-14.3,10.7-19.8,17.6c-6.5,8.4-11.8,6.7-17,0
	c-6.3-8.1-12.4-16.8-23.7-18.6c-3.3-0.5-6.6-0.9-8.3-1.2c-3.5-5.8-6.4-10.7-9.5-15.5c-8.7-13.5-19.3-25.7-23.4-42
	c-4.5-18.1-5.6-36.2-2.9-54.4c0.7-4.9,4.7-9.3,6.9-14c1.1-2.4,2.7-5,2.7-7.5c-0.4-12.5-1.4-24.9-1.9-37.4c-1-23.7,1.8-47.1,6.2-70.4
	c1.1-5.7,0.6-11.8,0.3-17.7c0-1.2-2-3-3.3-3.3c-11.9-2.7-22.3-8.4-30.4-17.2c-4.3-4.6-6.8-11.4-8.6-17.6c-2.5-8.4-3.6-17.1-5.2-25.7
	c-0.7-4,1.9-4.4,4.5-3.6c10.4,3.3,21.1,6.1,31,10.5c6.9,3.1,13,8.5,19.1,13.3c4.3,3.4,9.6,4.3,15.5,1c-6.7-6-12.7-12.7-19.9-17.4
	c-9.5-6.3-20-11-30.1-16.5c-4.5-2.5-8.9-5.3-13.4-7.7c-12.1-6.3-20.8-16.1-27.3-27.7c-2-3.5-3-7.8-3.2-11.9
	c-0.8-14.4,0.2-28.6,5-42.4c4.9-13.8,8.7-27.9,16.5-40.6c2.4-3.9,1.9-9.6,2.8-14.9c6.4,4.7,11.8,2,17.2-2.1C50,11.4,58.4,5.5,67.3,0
	C64.3,6.6,61.2,12.8,56,18.1c-9.3,9.7-19.1,19.2-27,30c-5.1,7-7.4,16.2-10.7,24.5c-0.7,1.7-0.4,3.8-0.6,5.8c0.5,0.2,1,0.5,1.5,0.7
	C27.9,64.1,36.4,49.1,45,34.2c0.5,0.2,1.1,0.4,1.6,0.6c2.2,11.5-5.8,20.7-8.2,32c30.8-11.6,61.3-23,91.7-34.5
	c0.4,0.5,0.9,1.1,1.3,1.6c-1.4,1.9-2.4,4.6-4.3,5.7c-12.9,7.8-25.8,15.7-39.1,22.9c-14.2,7.6-29.3,13.6-43.1,22
	c-10.1,6.1-18.8,14.7-27.8,22.6c-4.3,3.8-3.4,14.5,1.1,19.3c14,14.7,30.7,25.4,49.8,32.2c7.6,2.7,15.8-3.6,16.7-13.2
	c1-10.6,1.3-21.3,2.1-31.9c0.2-3.2,0.9-6.4,1.5-10.1c4.5,1.9,4.5,5.1,4.5,8.2c0,18-0.2,35.9-0.1,53.9c0,2.7,0.5,5.8,1.9,8
	c5.3,8.2,11.2,15.8,22.7,14.9c5.3-0.4,10.7,0.4,16,0.3c5.6,0,7.7-2,7.3-7.5c-1.4-19.6-2.9-39.2-4.4-58.8c-0.1-1.4-0.1-2.9-0.2-4.3
	c0.5-0.2,1-0.5,1.5-0.7c1.4,2.5,3.7,4.9,4.2,7.6c2.3,11.6,4,23.2,6.1,34.9c1.2,6.6,3,8,9.1,5.4c6.8-2.9,13.4-6.7,19.7-10.6
	c1.7-1.1,2.8-4,3.1-6.2c1.1-10.9-2.2-20.9-5.5-31.2c-5.2-16.6-9.8-33.4-14.6-50.1c0.9-0.3,1.8-0.7,2.7-1c6.9,16.3,13.9,32.5,21,49.1
	c2.1-1.1,3.3-1.8,5.7-3.1c0.3,2.4,0.6,4.2,0.7,6.1c0.4,7,0.1,14,1.2,20.8c1.1,7,4.5,7.2,10,3.1c10-7.6,10.1-18.1,8.6-28.5
	c-1.5-10.5-5.1-20.6-7.5-30.9c-2.5-10.7-4.7-21.4-7.2-32.1c-1.7-7.2-3.6-14.4-5.5-21.6c0.6-0.3,1.2-0.7,1.8-1
	c1.9,2.6,4.7,4.9,5.7,7.9c7.8,22.4,15.5,44.9,22.6,67.5c1.7,5.6,0.9,11.9,1.6,17.8c0.3,2.2,1.7,4.3,2.6,6.4c1.7-1.6,4-2.9,5-4.8
	c1.1-2.3,1.4-5.1,1.6-7.7c1-13.9-0.6-27.2-8.6-39.1c-4-5.9-7.1-12-5.2-20.9c3.2,4,5.8,7.2,8.3,10.4c0.5-0.1,1.1-0.3,1.6-0.4
	c-1.7-8-3.3-16.1-5-24.1c0.4-0.3,0.9-0.5,1.3-0.8c1.5,1.9,3.6,3.6,4.3,5.8c3.5,10.7,6.5,21.5,9.8,32.2c0.9,2.9,2.2,5.8,4,8.1
	c9.8,12.8,14.4,36.6,0.9,51c-11.9,12.7-27.3,18.4-42.5,25.2c-12.7,5.6-24.9,12.5-36.9,19.6c-3,1.8-4.4,6.4-6.4,9.8
	c-0.3,0.4,0.3,1.7,0.8,2.1c0.5,0.3,1.6,0.2,2.2-0.1c0.7-0.4,1.2-1.2,1.6-1.9c4.3-8.6,11.3-14.4,19.9-18.1c8.2-3.6,16.4-7.2,24.9-9.8
	c7.1-2.2,8.4-0.7,7.5,6.6c-2.8,20.7-11.8,38-29.1,50.2c-1.8,1.3-4.2,1.9-6.3,2.8c-8.5,3.2-10,9.7-3.2,15.5
	c7.9,6.8,16.2,13.2,24.5,19.7c3.3,2.6,4.3,10,1.3,15.1c-1.2,2-2.9,3.6-4.2,5.5c-2.4,3.7-4.4,7.7-7,11.2c-1.6,2.1-4,4.3-6.4,4.9
	c-5.6,1.3-11.5,2-17.3,2.1c-4.1,0.1-6.1,1.7-5.7,5.4c1,8,1.8,16.2,3.8,24c4.9,18.9,15.3,33.6,33.5,42.4c6.5,3.2,10.9,9.7,12.1,17
	c3.4,22,2.7,44.2-5.7,64.9c-5,12.4-14.1,23.2-21.3,34.7C179.4,490.2,177.1,494.4,174.3,499.3z"/>
<g id="XMLID_14_">
</g>
<g id="XMLID_15_">
</g>
<g id="XMLID_16_">
</g>
<g id="XMLID_17_">
</g>
<g id="XMLID_18_">
</g>
<g id="XMLID_20_">
</g>
</svg>
