<?xml version="1.0" encoding="utf-8"?>
<!-- Generator: Adobe Illustrator 19.0.0, SVG Export Plug-In . SVG Version: 6.00 Build 0)  -->
<svg version="1.1" id="Layer_1" xmlns="http://www.w3.org/2000/svg" xmlns:xlink="http://www.w3.org/1999/xlink" x="0px" y="0px"
	 viewBox="0 0 274.7 236.9" style="enable-background:new 0 0 274.7 236.9;" xml:space="preserve">
<style type="text/css">
	.st0{fill:#323133;}
</style>
<g id="XMLID_16_">
	<path id="XMLID_17_" class="st0" d="M146.3,0c0.2,0,0.3,0,0.5,0c2.6,2.3,1.4,5.8,2.4,8.8c3.2-3.3,3.2-3.3,5-2.8
		c-1.6,4.2-6.6,6.8-5.3,12.9c1.7-2.6,3-4.7,4.3-6.8c0.2,0.1,0.3,0.2,0.5,0.3c0.1,0.6,0.2,1.1,0.2,1.6c1.9-0.8,3.8-1.5,5.7-2.2
		c0.1,0.2,0.3,0.5,0.4,0.7c-1.1,0.9-2.2,1.8-3.3,2.8c1.4,0.9,2.6,1.7,4,2.6c-2.5,1.9-5.3-0.1-8.3,0.8c2.9,0.8,5,1.8,5.9,4.2
		c-2.1,0.6-4,1.1-6,1.7c-0.2-0.7-0.3-1.4-0.5-2.1c-2.4,0.6-2.8,0.9-2.7,3.1c0.1,2.7,0.5,5.3,0.7,7.9c0,0.3,0.3,0.5,0.7,1.3
		c1.9-1.8,3.9-3.3,5.3-5.2c1.4-1.9,2.2-4.3,3.5-6.7c1,0.9,1.6,1.4,2.2,2.1c1.1-1,2-1.9,3.1-2.8c0.3-0.3,0.9-0.2,1.4-0.3
		c0,0.5,0.3,1.1,0.1,1.5c-0.5,1-1.2,2-1.7,3c1.4,0.3,2.6,0.5,4.1,0.9c-1.6,1.8-2.9,3.2-4.2,4.6c1.6,0.6,2.9,1.2,4.6,1.9
		c-2,1.5-3.5,2.6-5.2,3.8c-0.6-0.2-1.5-0.5-2.5-0.9c-0.3,0.8-0.6,1.4-0.9,2.2c2,0.4,3.8,0.8,5.9,1.3c-2.1,2-3.9,3.5-5.6,5.1
		c1.2,0.1,2.1-0.5,3.1-0.7c0.9-0.2,2-0.4,2.8-0.1c0.4,0.1,0.3,1.5,0.4,2.6c1.3,0.3,3.1,0.5,4.5,1.3c1.5,0.8,2.6,2.1,4,3.2
		c-2.7,2.3-5.7,2.8-8,1.4c-0.5,1.1-1,2.1-1.9,4.1c-1.9-1.8-3.4-3.2-5-4.6c0.3-0.3,0.5-0.5,0.8-0.8c-0.5,0.3-1,0.6-1.5,1
		c0.1,0.7,0.3,1.4,0.4,2.2c-2.2,0.3-2.8,0-4.4-2.4c-0.6,0.7-1.3,1.5-1.9,2.2c-0.7-0.8-1.4-1.5-2.1-2.3c-0.2-0.3-0.4-0.6-0.7-1.2
		c0.4,5.4,4.6,4.3,8,4.9c-0.5,1.1-0.9,1.8-1.7,3.2c2.1,0,4,0.4,5.6-0.1c1.7-0.5,3.2-1.8,5-2.8c0.2,0.7,0.3,1.3,0.5,1.9
		c0.9-0.2,1.7-0.3,2.3-0.5c0.6,1.1,1.2,2.2,1.8,3.3c1.3-0.5,2.6-1.1,4-1.6c0.7-0.2,1.9-0.5,2.1-0.2c1.2,1.7,2.9,1.3,4.5,1.5
		c0.4,0.1,1.2,0.6,1.2,0.8c-0.1,0.5-0.5,1.2-0.9,1.4c-1.1,0.4-2.2,0.4-3.4,0.7c0.2,0.4,0.4,0.8,0.7,1.2c-1.2,0.5-2.2,0.9-3.3,1.3
		c0.4,0.7,0.6,1.2,0.9,1.6c-0.1,0.2-0.2,0.3-0.3,0.5c-1.8-0.8-3.6-1.6-5.8-2.6c1.2,1.4,2.2,2.5,3.1,3.6c-0.2,0.3-0.4,0.5-0.5,0.8
		c-1.8-0.9-3.7-1.9-5.8-3c-0.1,1.3-0.2,2.4-0.4,4.3c-1.7-0.9-3-1.6-4.4-2.3c-0.4,1.6-1.3,1.3-2.4,0.5c-0.8-0.6-1.7-1-2.6-1.4
		c-0.1,0.2-0.2,0.4-0.4,0.6c1,2.5,3.3,3.4,5.6,4.2c2.3,0.8,4.8,1.8,7,1.4c2.2-0.4,4-2.3,6-3.6c0.1,0.1,0.2,0.2,0.2,0.3
		c-0.3,0.6-0.6,1.2-0.8,1.4c0.5,0.9,0.8,1.4,1.2,2.1c1.5-0.8,3-1.7,4.9-2.8c-0.3,1-0.4,1.5-0.7,2.3c1.9,0,3.6,0,5.3,0
		c0.1,0.2,0.1,0.4,0.2,0.6c-1.6,0.8-3.1,1.6-4.8,2.5c0.1,0.5,0.3,1.1,0.4,1.8c-1,0-1.9,0.2-2.8-0.1c-0.8-0.2-1.4-0.9-2.4-1.5
		c0.3,1.2,0.6,1.9,0.6,2.6c0,0.7-0.3,1.4-0.5,2.2c-0.8-0.1-1.7-0.3-2.6-0.4c0.2,0.2,0.3,0.4,0.5,0.6c-0.9,1-1.6,2.5-2.7,2.9
		c-1.1,0.3-2.5-0.5-4.1-0.9c-1.6,2-2.7-1.1-4.4-1.2c-0.2,0.7-0.3,1.3-0.4,1.7c-2.4-0.6-4.6-1.1-6.9-1.6c-0.1,0.3-0.1,0.5-0.2,0.8
		c6.3,3.5,12.4,8.2,20.7,3.2c-0.3,1.7-0.6,2.8-0.9,4.4c2-0.5,4-0.9,6-1.7c1.6-0.6,2.5-0.7,2.2,1c2.2,0.7,4.1,1.4,6.6,2.2
		c-2.1,1.5-3.9,2.9-5.7,4.2c1.6,2.1-1.2,1.6-1.5,2.6c0.2,0.5,0.5,1.2,0.9,2.2c-2.8,0-5.1,0-7.5,0c-0.2,0.7-0.3,1.2-0.5,2
		c-1.3-0.6-2.5-1.2-3.8-1.8c-0.2,3-2.1,1.6-3.5,1.4c-1.5-0.2-3-0.6-4.3-0.9c0.2,2.5,2.2,3.9,4.7,4.4c2.3,0.5,4.7,1.1,7,0.7
		c2.2-0.3,4.3-1.8,6.6-2.8c-0.4,0.8-0.6,1.4-1,2.3c1.2-0.3,2.1-0.6,3.6-1c-1.2,1.3-2,2.2-3,3.2c2.3-0.4,4.3-0.8,6-1.2
		c2.1,1.1,4,2.1,6.2,3.3c-1.9,1.6-2.8,3.6-5.2,3.9c-0.6,0.1-1.6,0.9-1.6,1.3c0,2.1-1.3,1.8-2.7,1.7c-1.2-0.1-2.4-0.3-3.9-0.5
		c1.2,1.3,2.1,2.3,3.3,3.5c-2,0.6-3.4,1.2-4.8,1.3c-1.4,0.1-2.8-0.3-4-0.4c-0.5,0.5-1.1,1.1-1.9,2c6.3,2,12.6,1.5,19.3,0.5
		c-0.8,0.9-1.4,1.6-1.9,2.2c0.3,0.4,0.5,0.7,0.9,1.3c-1.4,0.2-2.4,0.3-3.6,0.5c0.8,1,1.5,1.9,2.5,3.2c-2.2-0.3-3.8-0.4-5.8-0.7
		c1.3,2.6,3,3.4,5.3,3.1c2.1-0.3,4.2-0.9,6.2-1.4c1.4-0.3,2.9-0.7,4.3-1.1c0.2,0.1,0.4,0.3,0.7,0.4c-1.8,1.4-2.6,3-1.9,5.1
		c0.2,0.5-0.8,1.4-1.3,2.1c-0.3,0.5-0.7,1-1.1,1.5c-0.6-0.1-1.3-0.3-2-0.4c0.2,0.6,0.4,1.1,0.8,1.9c-1.8,0.1-3.8,0.8-4.7,0.2
		c-2.4-1.8-4.4,0.2-6.6,0.1c0.7,0.7,1.5,1.2,2.4,1.6c4.5,2,9.1,3,13.9,0.4c0.2,1.1,0.4,1.7,0.5,2.5c2.6-0.6,5-1.1,7.4-1.7
		c0.1,0.3,0.3,0.6,0.4,0.9c-1.9,2.7-4.4,4.7-8,5.4c0.9,0.6,1.7,1.1,2.9,1.8c-1.9,0.2-3.2,0.3-4.9,0.5c0.8,0.9,1.3,1.5,1.9,2
		c-3.3-0.6-6.4-1.4-9.6,1.1c0.8,0.4,1.5,0.9,2.3,1.1c2.9,0.5,5.9,0.7,8.8,1.2c0.7,0.1,1.3,0.8,1.9,1.2c-0.1,0.2-0.2,0.3-0.3,0.5
		c2.2,0,4.4,0,6.6,0c0.1-0.2,0.1-0.4,0.2-0.7c-1-0.5-2.1-0.8-3-1.4c-1.1-0.7-2-1.6-3.2-2.7c1.7-0.2,3.1-0.4,4.5-0.4
		c1.4,0,2.9,0.2,4.3,0.3c0-0.2,0-0.4,0-0.6c-3-0.7-5.2-2.4-7.3-5.8c2.6,1.3,4.4-1.2,6.9,0c1.4,0.6,3.6-0.4,5.4-0.7
		c0-0.2,0-0.4,0.1-0.7c-2.4-0.8-3.3-3.5-6.1-4.1c-2.3-0.5-4.4-2.2-6.8-3.5c1.6-1,3.7,1.1,4.3-1.5c1,0.5,1.9,0.9,3.3,1.6
		c-0.4-1.2-0.7-2-1-3c1.4,0,2.8,0,4.7,0c-0.7-0.6-1.1-1-1.6-1.2c-1.3-0.6-2.6-1.1-3.8-1.9c-0.5-0.3-0.6-1.2-0.8-1.8
		c0-0.1,0.5-0.6,0.8-0.6c2-0.2,3.9-0.3,6.1-0.5c0,0,0.1-0.5,0.2-0.9c2.1,0.4,3.7,2.3,5.9,0.7c1.6-1.2,3.4-2.3,5.1-3.4
		c-0.1-0.2-0.2-0.3-0.3-0.5c-2.8,1.9-5.9,2.9-9.5,2.7c0.1-0.6,0.2-1,0.3-1.6c-1,0.4-1.7,0.7-2.4,0.9c-0.5-0.8-0.9-1.4-1.2-1.8
		c-0.9,0.1-1.6,0.1-2.3,0.2c0-0.6,0.1-1.1,0.1-1.4c-1.4-0.4-2.7-0.8-4.6-1.4c2.1-0.8,3.5-1.3,4.9-1.8c0-0.2-0.1-0.5-0.1-0.7
		c1.8,0.9,3.6,1.7,5.7,2.7c-0.3-0.7-0.5-1.1-0.9-1.9c1.3,0.5,2.2,0.9,3.1,1.1c1.9,0.3,3.9,0.5,5.8,0.6c0.3,0,0.7-0.8,0.8-0.9
		c-1.9-0.4-3.4-0.7-4.9-1c-0.1,0,0.1-0.7,0.1-0.8c-1.9-0.3-3.7-0.6-5.6-1c0-0.2,0-0.5,0.1-0.7c0.7-0.3,1.4-0.6,2.6-1.1
		c-1.2-0.9-2.2-1.7-3.2-2.5c0.5-0.3,0.9-0.6,1.2-0.8c-0.5-0.7-1-1.5-1.5-2.3c2.7-0.7,4.2,3.3,6.8,1.1c-0.5-0.8-0.9-1.5-1.5-2.6
		c1.3,0.3,2,0.5,2.6,0.7c0.1-0.2,0.2-0.4,0.2-0.6c-0.8-0.3-1.6-0.6-2.6-1.1c2.6-2.1-1.3-3.1-0.7-4.7c1.4,0,2.6,0,4.3,0
		c0.3,0.7,0.7,1.9,1.3,3.5c1.4-3.4-2.2-4.7-2.4-7.7c1.2,0.9,2,1.5,3.3,2.5c0-2.1,0-3.8,0-5.5c0.2,0,0.5-0.1,0.7-0.1
		c0.4,1.4,0.8,2.7,1.1,4c0.8-0.5,1.7-0.9,2.5-1.4c0.1,0.1,0.2,0.2,0.2,0.4c-1.2,2.1-2.4,4.2-3.7,6.4c0.3,0.2,0.6,0.3,0.8,0.5
		c0.7-1.1,1.5-2.1,1.8-2.6c1.8-0.3,3.1-0.6,4.8-0.9c-0.7,0.8-1.2,1.3-1.6,1.8c0.7,0.6,1.2,1,2.3,1.8c-1.7,0-2.7,0-3.8,0
		c-0.1,0.1-0.1,0.3-0.2,0.4c0.8,0.6,1.6,1.1,2.4,1.7c-1.5,0.7-2.7,0.9-3.9,0.9c-0.4,0-1.1-0.5-1.1-0.5c-0.3,0.5-0.7,1-0.7,1.5
		c0.1,1.5,0.4,3.1,0.7,5.1c1.4-1.3,2.6-2.2,3.5-3.3c1-1.2,0.9-3.8,3.6-2.7c0.2,0.1,0.7-0.6,1.1-0.8c0.4-0.2,0.8-0.4,1.7-0.8
		c-0.5,1.1-0.8,1.8-1.1,2.5c0.6,0.2,1.2,0.4,2,0.7c-0.7,0.9-1.4,1.6-2.1,2.5c0.9,0.4,1.6,0.8,2.8,1.4c-2.2,0.9-3.8,1.5-5.7,2.2
		c1.3,0.4,2.4,0.8,3.5,1.2c-0.9,0.7-1.5,1.2-1.9,1.6c2.7,1.6,5.2,3,8.2,4.7c-1.6,0.6-2.6,1.1-3.6,1.3c-0.9,0.3-1.9,0.3-2.9,0.4
		c0,0.2-0.1,0.5-0.1,0.7c-0.9-0.8-1.7-1.5-2.7-2.4c-0.3,0.7-0.4,1.3-0.7,2.1c-0.9-0.5-1.7-0.9-2.6-1.4c-0.2,0.5-0.5,1-0.8,1.6
		c1.1,0.1,1.9,0.1,2.9,0.2c-0.1,0.6-0.2,1-0.4,1.9c1.3-0.1,2.7,0.1,3.6-0.4c2.4-1.6,4.1-0.7,5,0.5c3,0.2,5.3,0.4,7.7,0.6
		c0,0.2,0,0.4,0,0.5c-1.5,1-2.9,2-4.4,3.1c0.1,0.1,0.2,0.3,0.3,0.4c-0.6-0.1-1.3-0.2-2-0.3c0.1,0.5,0.2,0.8,0.4,1.6
		c-1.4-0.6-2.5-1.1-3.7-1.6c-0.2,0.7-0.4,1.3-0.6,2c-2-0.5-3.8-0.9-6.1-1.5c1.7,2.4,4.1,3,6.2,3.2c1.7,0.2,3.5-0.7,5.2-1.1
		c0.4,0.3,1.2,1.1,1.4,0.9c1.8-1.3,3.3,0.8,5,0.5c-2,0.2-2.4,4-5.2,1.9c-0.1,1.5-2.4,4.2-3.6,4.3c-0.2,0-0.5-0.1-0.7-0.1
		c-2.5-0.3-5-0.7-7.5-1c-0.2,0-0.5,0.2-1,0.4c3.9,2.2,7.6,4.2,12.2,1.8c0.1,0.8,0.1,1.3,0.2,2.3c3-1.6,5.6-0.6,8,0.8
		c-1.4,1.5-2.7,3.1-4.6,5.2c-2.9,0.2-6.7,0.6-10.4,0.9c1.8,2.6,5.9,2.9,10.5,0.8c0.5,0.6,1,1.2,1.3,1.6c2,0.5,4.1,1,6.2,1.5
		c0,0.3,0,0.6,0,0.9c-2.5,1.2-4,4.1-7.6,3.3c0.5,0.6,0.9,1.2,1.6,2c-2.2,0.4-4.1,0.7-6.1,1c0,0.3,0.1,0.6,0.1,0.8c3.5,0,7,0,11.2,0
		c-1,1.1-1.6,1.8-2.2,2.6c0.1,0.1,0.4,0.6,0.8,1.3c-1.1,0-2,0-3.4,0c3.5,2.8,6.7,0.1,9.6,0.2c-0.2,6.8-5.1,5.9-9.6,5.9
		c2.5,1.4,5,2.5,7.8,1.7c0.7-0.2,1.8-0.5,1.9-0.3c0.9,1.7,2.1,0.5,3.1,0.5c0.6,0,1.3-0.1,1.9-0.2c0.1,0.2,0.2,0.4,0.3,0.6
		c-1.4,1-2.8,2-4.2,3c0.1,0.1,0.3,0.4,0.5,0.8c-0.8,0.1-1.4,0.2-2.1,0.3c0.1,0.5,0.2,0.8,0.2,0.9c-1.7,0.1-3.4,0.2-5,0.4
		c0,0.3,0,0.5,0,0.8c3.4,0.7,6.9,1.4,10.3,2c1.4,0.2,2.8,0,4.6,0c-1.3,0.6-2.2,1-3.1,1.5c0.6,0.8,1,1.5,1.5,2.2
		c-2.2,0.8-4.4,1.4-6.5,2.2c-1,0.4-1.9,1.7-2.8,1.6c-3.4-0.1-6.8-0.5-10.1-0.7c-0.9-0.1-1.8,0-3,0c3,2.4,10.2,4.1,13.6,3.5
		c0.6-0.1,1.2,0,1.8,0.2c0.6,0.2,1.1,0.9,1.6,0.8c2.5-0.3,4.8,0,6.9,2.3c-1.6,0.1-3,0.2-4.3,0.2c0.6,0.4,1.2,0.8,1.9,1.3
		c-2.9,0.3-5.5,0.7-8.4,1c0.6,1.1,0.9,1.7,1.3,2.5c-3.1-1.4-5-1.2-5.9,0.3c-0.9-0.4-1.9-0.9-2.9-1.4c-0.2,0.6-0.3,1-0.4,1.3
		c-0.7-0.2-1.5-0.4-2.2-0.6c-0.1,0.3-0.2,0.5-0.2,0.8c2.8,1.1,5.5,2.7,8.4,3.1c2.8,0.3,5.8-0.7,8.6-1c-0.1,0.2-0.3,0.6-0.7,1.2
		c1.6-0.2,3-0.3,4.3-0.5c0,0.2,0.1,0.4,0.1,0.6c-1.4,0.5-2.8,1-4.8,1.7c1.8,0.4,2.8,0.6,3.9,0.9c0,0.1,0,0.3-0.1,0.4
		c-0.6,0.1-1.3,0.1-2.2,0.2c0.7,0.5,1.2,0.8,1.8,1.2c-2.7,0.2-3.7,1.2-2.9,2.4c-1.8,1-3.6,2-5.8,3.2c3.4,0.6,6.5,1.2,9.8,1.8
		c-1.2,0.6-2.1,1.1-3.4,1.9c-0.4-0.1-1.3-0.5-2.2-0.8c-0.3,1-0.6,2-0.9,3.1c-0.8-0.4-1.7-0.8-2.5-1.2c-0.4,0.4-0.9,0.7-1.3,1.1
		c-1-0.6-1.9-1.2-2.9-1.9c0.2,2.1-1.3,3.2-3.2,2.5c-2-0.7-4.1-1.3-5.8-1.8c-0.7,1-0.9,2-1.3,2c-1.9,0.2-3.9,0.5-5.7,0
		c-2.5-0.6-4.9-1.9-7.5-2.9c0.2,1.5,0.5,3.4,0.9,5.4c-3,0-5.9,0-8.9,0c2.4-6.9,2.4-7.7,0.3-8.4c-3.5,3.6-8,5-12.4,6.8
		c-0.3-0.7-0.5-1.2-0.7-1.8c-1,0.6-1.8,1.2-2.8,1.8c-0.2-0.7-0.3-1.1-0.3-1.1c-1.4,0-2.6-0.1-3.8,0c-0.9,0.1-1.9,0.5-2.8,0.7
		c0,0.2,0,0.5,0,0.7c-1.5-0.8-3-1.6-4.5-2.4c-1.5,2.5-1.9,2.6-4.1,0.7c-0.9-0.8-1.7-1.5-2.8-2.5c-0.2,2.1,2,4.3-1.2,5.3
		c-0.5-0.4-1.1-0.9-1.8-1.5c-0.4,0.7-0.8,1.3-1.1,2c-1.6-2.3-5.2-1.1-6.4-3.9c-0.1-0.2-0.8,0-1.2,0c-0.1,0.5-0.1,0.9-0.2,1.4
		c-1.4-0.6-2.6-1-3.5-1.4c-0.1,1.4-0.3,2.6-0.4,3.6c-2.9-0.1-5.5-0.2-8.2-0.4c-0.1,0.3-0.3,0.8-0.6,1.3c-1-0.5-1.9-1.4-2.8-1.4
		c-2.7-0.2-5.3-0.3-6.3-3.6c-0.3,0.3-0.6,0.6-0.7,0.6c-1.1-1-2.1-1.9-3.4-3.1c-1.1,3.9,0.9,7.4,1.3,11c-5.1,0-9.9,0-14.5,0
		c0.9-3.4,1.8-6.7,2.5-10c0.8-4,0.5-4.3-3-5.8c0.1,3.3-2.7,4.3-4.6,6c-0.1,0.1-0.4,0-0.7,0c0-0.7,0-1.3,0-2.3
		c-0.8,1.4-1.4,2.3-1.9,3.2c-1.7,2.8-1.7,2.8-4.6,1.4c0.4,0.4,0.8,0.8,1.2,1.3c-1.7,0.7-3.3,1.3-5,2c-1.1-1.8-2,1.2-3.5,1.1
		c-1.7-3.1-4-0.7-6.1-0.1c-0.1-0.9-0.2-1.5-0.2-2.1c-1.9,0.6-3.5,2.3-5.7,1c-0.2-0.1-0.6,0-0.7,0.1c-1.3,1.6-2.3,0.7-3.4-0.3
		c-0.5,0.7-0.9,1.2-1.3,1.8c0-0.2,0-0.5,0-0.7c-1.1-0.2-2.2-0.3-3.3-0.6c-0.5-0.1-1.1-0.2-1.4-0.6c-1-1.2-1.7-3.2-3.3-0.6
		c-0.1,0.1-0.7-0.1-1.1-0.3c-0.9-0.3-1.7-0.6-2.3-0.7c-0.2,1.2-0.3,2.3-0.5,3.2c-3-0.1-5.7-0.3-8.5-0.4c-0.1,0.2-0.2,0.7-0.5,1.6
		c-2.6-3.2-7.9-0.1-9.2-4.7c-2.4,1.1-2.3-2.2-4.7-1.8c0.6,3.1,1.1,6.2,1.7,9.2c-5.1,0-10,0-14.5,0c0.8-3.1,1.8-6,2.4-9.1
		c0.7-3.5,0.6-3.6-2.9-4.7c-0.3,3.2-3.1,3.8-5.3,5.5c-0.2-0.8-0.3-1.3-0.4-1.8c-2.2,1.2-2.2,6.3-6.2,3.5c-1.3,1.2-2.5,2.2-3.7,3.3
		c-0.9-0.3-1.9-0.4-2.6,0c-1.2,0.7-1.8,0.6-2.1-0.8c-0.1-0.6-0.4-1.1-0.5-1.7c-1.6,1-3.1,2-5.1,3.4c0-1.6,0-2.5,0-3.4
		c-3.6,2.9-4.9,3.1-6.1,1.1c-0.7,0.4-1.4,0.8-1.8,1c-1.2-0.5-2.1-0.9-3.1-1.4c0.5-0.8,0.9-1.6,1.5-2.7c-2.3,0.6-4.4,1.1-6.5,1.7
		c-0.1-0.2-0.1-0.4-0.2-0.5c0.8-0.9,1.6-1.7,2.7-2.9c-1.9,0.2-3.5,0.3-5,0.5c-0.1-0.4-0.2-0.8-0.2-1.2c2.4-0.7,4.8-1.4,7.2-2.2
		c-0.1-0.2-0.1-0.4-0.2-0.7c-1,0.3-2.1,0.4-3.1,0.8c-1.4,0.6-2.7,1.2-3.1-1.1c-1.6,1.2-3.1,1.8-4.2-0.2c-1.2,0.5-2.3,1-3.8,1.6
		c0.2-0.9,0.3-1.4,0.4-1.9c-0.8-0.1-1.5-0.1-2.5-0.2c0.6-0.9,1-1.5,1.4-2.2c-2.2,0.3-4.4,0.6-6.5,0.8c0-0.3,0-0.6,0-0.9
		c1.9-0.8,3.9-1.7,6.4-2.8c-1.7-0.4-2.7-0.7-3.6-0.9c0-0.3,0-0.5,0-0.8c1.7-0.2,3.3-0.3,5.1-0.5c-0.1-0.4-0.1-0.9-0.2-1.3
		c1.2-0.1,2.1-0.2,3.1-0.3c0.9-0.1,2-0.7,2.8-0.4c3.8,1.4,7.6,0.4,11.3-0.4c0.6-0.1,1-1,1.5-1.5c-0.1-0.1-0.3-0.3-0.4-0.4
		c-0.9,0.5-1.7,1-3.2,1.9c0.4-1.6,0.6-2.5,0.9-3.5c-2,1.4-3.9,2.8-6.2,4.4c0.3-1.8,0.4-2.8,0.7-4.2c-4,3-4.4,2.9-5.9-0.7
		c-1.4,0.3-2.8,0.6-4.2,0.8c-0.1-0.2-0.2-0.4-0.3-0.6c0.7-0.9,1.4-1.9,2.2-3c-3,0.4-5.8,1.9-8.5,0.1c0-0.3-0.1-0.6-0.1-0.9
		c2.1-0.4,4.2-0.8,7-1.3c-1.4-0.8-2.3-1.3-3.1-1.9c0-0.2,0.1-0.5,0.1-0.7c5.8,0,11.6,0,17.4,0c0-0.3,0-0.7,0-1
		c-1.5-0.1-2.9-0.3-4.4-0.4c0.2-0.4,0.3-0.8,0.7-1.6c-3.4,2.4-5.5-1.2-8.3-0.7c-0.1-0.2-0.1-0.4-0.2-0.6c1-0.8,1.9-1.5,2.9-2.3
		c-2.1-0.1-4.4,0.9-6.2-1.5c2.4-0.5,4.5-1.1,6.7-1.4c1.1-0.1,2.4,0.2,2.5-1.1c0.1-0.7-0.8-1.6-1.4-2.6c-1.8,1.7-3.4,1.9-5.1,0.6
		c-1.4-1.1-2.8-2.1-4.4-3.2c0.8-0.9,1.6-1.9,2.5-2.9c-2.6-0.1-5.1-0.3-7-1.9c0-0.3,0.1-0.6,0.1-0.9c2.4,0.2,4.8,0.4,7.2,0.6
		c-0.5-0.6-1-1.3-1.9-2.6c2.8,0.4,4.9,0.7,7,1c-0.1-0.2-0.1-0.4-0.2-0.6c0.5-0.3,1.1-0.9,1.6-0.9c1-0.1,2,0,2.9,0.4
		c4.8,2,9.1,0.1,13.5-1.4c1-0.4,1.8-1.5,2.7-2.2c-0.1-0.1-0.3-0.2-0.4-0.3c-1.5,0.5-3,0.9-5,1.5c0.4-1.2,0.5-1.8,0.5-1.8
		c-1.6-0.8-3.1-1.5-4.5-2.3c-2.3-0.2-4.7-0.5-7.2-0.7c0.3-0.5,0.6-1.1,0.9-1.6c-1.5-0.4-2.7-0.8-4-1.2c0-0.2,0.1-0.5,0.1-0.7
		c0.6-0.2,1.3-0.4,1.8-0.6c-1.8-0.9-3.6-1.9-5.4-2.8c0.1-0.1,0.2-0.3,0.2-0.4c4.1,0.5,8.3,1,12.7,1.6c-0.4-0.5-0.6-0.7-0.7-1
		c-0.1-0.2-0.1-0.5-0.3-1.2c7.4,3.7,13.9,0.5,20.6-1.4c0-0.2,0-0.4,0-0.6c-2.9-0.5-5.8-1.1-8.8-1.6c0-0.4,0-0.9,0-1.2
		c-1.2,0.5-2.4,0.9-3.8,1.5c0-1.3,0-2.1,0-3c-2,0.8-3.9,3.4-5.4-0.1c-1.3,0.3-2.4,0.6-4.1,1c0.8-1.3,1.1-1.8,1.5-2.5
		c-2.5,1.1-2.5,1.1-9.4-0.8c1.1-0.8,2.1-1.5,3.2-2.3c-1.7-0.6-3.1-1.2-4.6-1.7c0-0.3,0.1-0.7,0.1-1c4.6-0.4,9.3-0.7,13.9-1.1
		c4.6-0.5,9.4-0.1,14-1.7c-1.8-0.6-4.1,0-5.2-2.4c4.8-0.6,9.3-1.5,13.3-3.8c-0.1-0.2-0.1-0.4-0.2-0.5c-1.1-0.1-2.1-0.3-3.2-0.4
		c-0.4,0.6-0.9,1.3-1.5,2.3c-0.4-0.8-0.7-1.3-0.9-1.9c-0.7,0.7-1.3,1.2-2,1.7c-0.4-0.7-0.7-1.3-1.1-1.9c-2,3.3-5.1,3.8-6.6,1
		c-0.6,0.5-1.2,1-1.6,1.3c-0.9-0.7-1.6-1.6-2.1-1.5c-2.4,0.5-4.3-0.3-6.2-1.5c0.2-0.5,0.4-1,0.5-1.3c-1.9-0.8-3.5-1.6-5.2-2.3
		c0.1-0.2,0.1-0.5,0.2-0.7c1.3-0.1,2.7-0.1,4-0.4c0.7-0.1,1.4-0.7,2.1-1c0.8-0.4,1.5-1.1,2.3-1.2c4.8-0.8,9.8-1,14.1-3.8
		c-0.4-0.9-0.8-1.8-1.2-2.9c1.4-0.2,2.3-0.3,3.7-0.4c-2.3-1.9-3.9-0.8-5.2,0.6c-1.5,1.6-3.2,1.8-4.8,1c-1.3-0.7-2.2-1.9-3.3-2.9
		c-0.9-0.1-2.1,0.2-2.6-0.2c-1.5-1.1-2.7-2.5-4.1-3.9c1.4-0.1,3.5,0.4,4.2-0.4c1.3-1.6,2.2-0.7,3.3-0.1c2.3,1.1,6,0.6,7.5-1
		c-1.3-0.4-3.5,1-3.6-1.9c-1.9,0.8-3.6,1.1-3.9-1.5c-0.8-0.2-1.7-0.1-2-0.5c-1.1-1.2-2-2.6-3.2-4.2c1.2,0,2.3-0.1,3.4,0
		c1.6,0.2,3.1,0.5,2.7-2.7c5,3.4,9.6,2,14.4,0.5c-2.7-2.5-5.3-4.8-7.9-7.1c-0.6,0.5-1.1,0.9-1.5,1.2c-0.6-0.5-1-1.2-1.5-1.4
		c-1.6-0.6-3.3-1.1-5-1.6c-0.3-0.1-0.6-0.5-0.8-0.8c-0.4-0.5-0.7-1.1-1.2-1.4c-1.1-0.6-2.2-1.1-3.3-1.7c0.1-0.2,0.2-0.5,0.3-0.7
		c2,0.2,4,0.4,6.1,0.6c-0.1-0.9-0.1-1.5-0.2-2.7c2,1.1,3.6,2,5.2,2.8c1.6-2.1-0.4-2.9-1.2-4.2c2.2-0.5,4.3-1.5,6.4,0.1
		c0.1,0.1,0.8-0.1,0.9-0.3c0.2-0.3,0.2-1.1,0-1.2c-1-0.5-2.1-0.9-3.5-1.4c-1.4-0.8-3.2-1.9-5.1-3c0.1-0.1,0.2-0.6,0.3-0.8
		c-0.5-0.5-1-0.9-1.4-1.2c0.5-0.5,1-1.2,1.6-1.4c0.6-0.2,1.3,0.2,2,0.3c1.3,0.2,2.7,0.5,2.7-1.5c1.9,0.5,3.6,0.9,5.5,1.4
		c-0.1-1-0.2-1.6-0.3-2.4c3.6,0.4,6.3,3.6,10.4,1.3c5.9-3.4,8-4.7,7.8-6.5c-1.1,0.8-2.2,2-3.6,2.5c-2.8,1-5.6,1.6-8.5,2.3
		c0,0.1-0.1-0.3-0.1-0.5c-1.3,0-2.4,0-3.9,0c0.8-1,1.2-1.5,1.7-2.1c-2.3-0.4-5.4,3.2-6.3-1.7c0.7-0.4,1.4-0.9,2.7-1.8
		c-3,0.4-4.5,3.7-7.6,1.9c0.8-0.9,1.4-1.6,2.1-2.4c-2.9-0.1-5.8,0.4-8.3-2.4c2.6-0.4,4.6-0.7,6.5-1c0.1-0.8,0.1-1.7,0.4-1.9
		c0.5-0.3,1.3-0.1,1.9,0.1c0.6,0.2,1.1,0.8,1.8,1c2.2,1,4.3,1.9,6.5,2.9c0.1-0.2,0.1-0.3,0.2-0.5c-0.6-0.6-1.2-1.1-1.9-1.7
		c0.2-0.3,0.3-0.6,0.5-0.9c2.5,1,5,2.4,7.6,2.8c2.8,0.4,5.7-0.1,8.9-0.2c-0.6-1.4-0.9-2.3-1.1-2.8c-1.5,0.7-2.9,1.3-4.4,2.1
		c-0.2-1.1-0.3-1.8-0.4-2.2c-1.2,0.1-2.3,0.2-3.4,0.3c-0.1-0.2-0.1-0.4-0.2-0.6c0.5-0.6,1-1.2,1.5-1.8c-1.8,0.3-3.4,1.2-5.2-0.3
		c-1.3-1-3.8,1.5-5.1-1.6c1.5-0.5,2.8-0.9,4.9-1.5c-2.1-1.5-3.8-2.7-5.8-4.1c0.9-0.4,1.7-0.9,2.6-1.3c-1-1.1-3.2-1.6-2.1-4.2
		c1.8,0.9,3.5,1.5,5.1,2.5c2,1.2,3.7,1.9,5.4-0.1c-0.8-1.2-1.6-2.4-2.5-3.6c0.2-0.2,0.4-0.3,0.6-0.5c1.2,0.4,2.5,0.9,4.1,1.4
		c-0.1-1.1-0.2-2-0.3-2.3C55,49,54,48.9,53,48.8c0.3-0.9,0.7-1.8,1.1-2.9c-1-1.4-2.2-3.1-3.5-4.8c0.2-0.3,0.4-0.5,0.6-0.8
		c1.5,0.6,2.9,1.1,4.2,1.6c0.7-0.7,1.3-1.3,1.8-1.9c0.5,0.8,1.1,1.5,1.4,2.4c0.6,1.4,1.1,2.9,1.6,4.4c1-2.9,0.8-5.4-1.4-7.5
		c-1.2-1.2-2.7-2.4-2.2-5c1.7,1.4,3.1,2.5,4.7,3.8c0.2-3.1,0.3-5.9,0.5-8.8c3.7,1.4,1.3,5.1,3,7.3c2.7-3,2.7-3,4.8-2.4
		c-1.6,3.7-6.5,5.8-5.1,11.1c1.3-1.9,2.7-3.8,4.3-6c0.4,1,0.6,1.5,0.7,1.9c1.9-0.6,3.8-1.3,5.7-1.9c0.1,0.2,0.2,0.4,0.2,0.7
		c-1,0.9-2.1,1.7-3.2,2.6c1.3,0.8,2.5,1.5,3.7,2.2c0,0.2-0.1,0.3-0.1,0.5c-2.4,0-4.9,0-7.3,0c1.9,1.2,3.6,2.4,5.8,3.8
		c-2.7,0.7-4.6,1.3-6.6,1.8c-0.2-0.6-0.4-1.3-0.9-2.5c-1,0.9-2.3,1.6-2.3,2.3c0,2.9,0.4,5.8,0.7,9.1c3.2-1.9,5.9-3.4,7.2-6.7
		c1.4-3.5,2.2-3.7,4.6-2.1c1.7-0.6,2.5-3,5.2-2.5c-0.9,1.5-1.6,2.6-2.4,3.8c1.3,0.2,2.6,0.4,4.2,0.7c-1.8,1.6-3.1,2.7-4.4,4
		c1.8,0.7,3.1,1.2,4.6,1.9c-2.1,1.3-3.6,2.2-5.2,3.2c-2.6-0.9-2.6-0.9-3,1.2c1.7,0.3,3.5,0.7,5.5,1.1c-2,1.6-3.7,3.1-5.5,4.5
		c1.4,0,2.7-0.6,4-0.9c2-0.5,2.7,0.3,2.3,2c3,1.3,5.9,2.6,8.9,3.9c-0.1,0.3-0.1,0.5-0.2,0.8c-2.5,0.9-4.9,2.9-8,0.9
		c-0.5,0.9-0.9,1.8-1.6,3.2c-1.7-1.4-3.2-2.7-4.8-4.1c-0.2,0.1-0.8,0.3-1.3,0.6c0.2,0.7,0.3,1.3,0.5,2.1c-2.4,0.5-3.6-0.8-4.6-2.4
		c-0.6,0.9-1.1,1.6-2.1,3c-0.8-1.2-1.4-2.1-1.9-2.9c0.8,4.4,4.7,2.4,7.2,3.6c-0.4,0.8-0.8,1.4-1.1,2c4,2.2,7-0.1,10.1-2.1
		c0.2,0.7,0.4,1.2,0.6,1.7c0.9-0.1,1.7-0.3,2.5-0.4c0.6,1,1.2,1.9,1.6,2.6c2.3-0.5,4.5-1.4,6.6-1.3c2,0.1,3.8,1.3,5.8,2
		c0,0.2,0.1,0.5,0.1,0.7c-1.5,0.4-3,0.8-4.3,1.1c0.2,2.2-2.5,1-2.9,2.4c0.2,0.4,0.4,0.8,0.9,1.9c-2.4-0.9-4.2-1.6-5.9-2.3
		c-0.1,0.2-0.3,0.3-0.4,0.5c1.1,0.7,2.2,1.5,3.3,2.2c-0.2,0.3-0.3,0.6-0.5,0.8c-1.1-0.4-2.4-0.6-3.4-1.1c-2.8-1.6-2.8-1.6-3.1,1.6
		c0,0.1-0.2,0.2-0.5,0.7c-1.3-0.6-2.7-1.3-3.9-2c-2,3-3.6-2.3-5.8,0c6.1,4.3,12.1,7.6,19.3,1.1c0,0.2,0,0.5,0,0.7
		c-0.3,0.5-0.5,1-0.7,1.3c0.5,0.6,0.9,1.1,1.3,1.7c1.5-0.7,3-1.5,4.3-2.1c1.1,3,3.8,0.7,5.5,2.3c-1.7,0.8-3.2,1.5-4.8,2.2
		c0.1,0.4,0.2,1,0.4,2.1c-1.9-0.6-3.4-1-4.8-1.4c0,1.2,0,2.5,0,3.9c-1-0.2-1.9-0.3-2.8-0.4c0.1,0.2,0.2,0.3,0.3,0.5
		c-0.9,0.9-1.7,2.3-2.8,2.5c-1.2,0.3-2.7-0.6-4.2-0.9c-1.5,1.8-2.8-0.8-4.4-1c-0.2,0.6-0.4,1.2-0.7,1.8c-0.9-0.4-1.7-0.7-2.5-0.9
		c-0.8-0.3-1.6-0.7-2.5-0.7c-0.6,0-1.3,0.4-2,0.6c3.8,2.4,8,4.4,12.5,4.7c2.6,0.2,5.3-0.7,8.2-1.1c-0.1,0.7-0.3,1.7-0.6,3.1
		c2.1-0.5,4.1-0.9,6.2-1.5c1.2-0.3,2.2-0.7,2.2,0.9c2.1,0.6,4.2,1.2,6.7,2c-1.7,1.1-3.2,1.9-4.6,2.8c-0.4,0.2-1.1,0.7-1.1,0.7
		c1.2,2.1-1.3,1.5-1.8,2.4c0.2,0.5,0.4,1.1,0.8,2.1c-2,0-3.8,0.1-5.5,0c-1.4-0.1-2.5-0.3-2.6,1.7c-1.4-0.6-2.6-1.1-3.9-1.6
		c-0.6,2.5-2.4,1.5-3.8,1.2c-1.5-0.2-2.9-0.6-4.3-1c1.2,4.2,5,3.8,8.4,4.6c3.8,0.9,6.8-1,10.4-2.8c-0.5,1.1-0.8,1.6-1.1,2.4
		c1.2-0.3,2-0.5,2.9-0.7c0.1,0.2,0.2,0.4,0.4,0.6c-0.8,0.5-1.5,1-2.5,1.6c2.7,0.9,4.9-1.7,7.2,0.4c0.4-0.8,0.7-1.5,1-2.1
		c-1.9-1-3.6-1.9-5.3-2.8c0.7-0.7,1.2-0.8,1.6-0.9c2-0.3,4.5,0.4,5.2-2.5c0.1-0.2,0.6-0.4,1-0.4c5.2-0.4,10.2-1.2,14.6-4.2
		c-0.4-1-0.7-2.2-1.2-3.5c1.4-0.1,2.3-0.2,3.3-0.3c-1.2-1.5-1.9-1.7-3.2-0.9c-1,0.7-1.8,1.6-2.8,2.4c-0.5,0.4-1.4,0.9-1.7,0.7
		c-1.8-1.1-3.5-2.4-5.7-3.9c-0.8,0.2-2.4,0.6-2.9-1.8c-0.1-0.5-1-0.9-1.5-1.2c-0.6-0.4-1.2-0.7-1.8-1.1c0.1-0.2,0.1-0.4,0.2-0.6
		c0.9,0,1.9,0,2.8,0c0.5,0,1.4,0.1,1.5-0.1c0.9-2.5,2.1-0.9,3.1-0.3c2.3,1.2,5.9,0.6,7.4-1.3c-1.3-0.4-3.8,1.1-3.5-2
		c-3,0.9-3.2,0.8-3.8-1.9c-0.7-0.1-1.4-0.3-2.1-0.4c0.1-0.2,0.3-0.3,0.4-0.5c-1.1-1.3-2.2-2.6-3.8-4.4c2.3,0,4.3,0,6.2,0
		c0.1-1,0.2-1.6,0.3-2.9c4.8,3.8,9.3,1.9,14,0.3c-2.7-2.8-5.2-5.4-7.8-8.1c-0.6,0.5-1.1,0.9-1.6,1.4c0.1-0.2,0.1-0.4,0.2-0.6
		c-2.4-1.1-4.8-2.3-7.3-3.5c0-0.4,0.1-0.9,0.1-1.1c-1.7-1-3.2-1.8-4.7-2.6c0.1-0.3,0.2-0.5,0.3-0.8c2,0.2,4,0.4,6.2,0.7
		c-0.2-0.9-0.3-1.6-0.6-3.1c2.2,1.3,3.8,2.3,5.9,3.5c0-1.2,0.2-2.1-0.1-2.8c-0.3-0.8-1-1.4-1.5-2.1c2.4-0.8,4.6-1.7,7,0.3
		c0.2-0.8,0.4-2,0.1-2.1c-1-0.6-2.2-0.7-3.3-1.1c0.1-0.1,0.2-0.1,0.2-0.2c-1.7-1.1-3.5-2.2-5.4-3.3c0.1-0.2,0.3-0.8,0.6-1.3
		c-0.6-0.2-1.1-0.4-1.7-0.6c0.4-1.9,1.4-2.4,3-1.9c1.6,0.4,3.2,0.9,3.4-1.6c1.9,0.5,3.7,1,5.5,1.5c-0.2-1.1-0.4-1.7-0.7-2.9
		c2.3,1,4,1.9,5.9,2.6c0.7,0.3,1.7,0.4,2.3,0.1c2.8-1.6,5.5-3.3,8.1-5.1c1-0.7,1.5-2,2.3-3c-0.2-0.2-0.4-0.3-0.6-0.5
		c-1.2,2.5-3.3,3.3-5.8,3.8c-1.9,0.4-4.1,0.5-5.2,2.5c-0.1,0.1-0.4,0.1-0.6,0.1c-0.1-0.5-0.3-1-0.4-1.6c-0.4,0.2-0.6,0.4-0.9,0.4
		c-0.8,0.1-1.5,0-2.3,0c0.4-0.7,0.6-1.4,1.1-1.9c0.7-0.7,1.5-1.3,2.3-1.9c-2.1,0.8-4.1,1.7-6,2.6c-0.3,0.1-1.1,0.1-1.2-0.1
		c-0.6-1.2-1-2.4-1.3-3.2c-1.3,0.2-2.8,0.4-4.2,0.6c0.4-1,0.7-2,1.1-3.1c-2.5-0.1-5.5,0.4-7.7-2.8c2.5-0.4,4.5-0.8,6.4-1.1
		c0.1-0.9,0.1-2.1,0.4-2.2c0.7-0.2,1.6,0,2.3,0.2c0.5,0.2,0.9,0.8,1.5,1.1c2.1,1.1,4.1,2.1,6.2,3.2c0.1-0.2,0.1-0.3,0.2-0.5
		c-0.6-0.7-1.2-1.4-1.8-2.1c0.2-0.3,0.3-0.5,0.5-0.8c1.4,0.6,2.9,0.9,4.1,1.7c3.8,2.4,7.7,1.4,11.9,0.8c-0.4-1.3-0.8-2.2-1-2.8
		c-1.4,0.7-2.6,1.3-3.9,1.7c-0.2,0.1-0.8-1.3-1.1-1.9c-1,0.1-2,0.1-3.8,0.3c1.1-1.4,1.7-2.2,2.3-3c-0.9,0-1.5,0.3-2.2,0.6
		c-0.5,0.2-1.2,0.5-1.4,0.3c-1.5-1.4-3.1-1.3-4.9-0.9c-0.4,0.1-1.1-0.8-1.7-1.3c0.4-0.5,0.7-1.1,1.2-1.4c0.9-0.4,2-0.6,3.4-1
		c-1.6-1.3-2.8-2.4-4.1-3.5c-0.4-0.4-0.9-0.6-1.4-0.9c0.4-0.4,0.7-0.9,1.2-1.2c0.4-0.3,0.9-0.3,1.4-0.5c-1.4-1.3-3.4-2.2-2.2-4.8
		c1.6,0.9,3.2,1.6,4.6,2.6c2,1.5,3.9,2.6,5.8-0.1c-0.7-1.3-2.8-2.1-2-4.5c1.3,0.6,2.5,1.1,4,1.7c-0.1-1.2-0.1-2.2-0.2-2.6
		c-1.4-0.2-2.5-0.4-3.5-0.5c0.3-0.9,0.7-1.9,1.2-3.3c-0.6-0.9-1.7-2.2-2.5-3.7c-0.3-0.6-0.1-1.5-0.2-2.3c0.7,0.1,1.4,0.2,2.1,0.5
		c0.8,0.3,1.5,0.8,2.1,1.2c0.5-1,0.9-1.8,1.3-2.5c0.2,0,0.5,0,0.7,0c0.9,2.6,1.8,5.2,2.6,7.8c0.6-0.4,0.7-0.6,0.7-0.8
		c0.4-3.3-0.5-6.1-2.8-8.6c-1-1.2-2.1-2.5-1.4-4.3c0.3-0.3,0.6-0.5,0.9-0.8c1,1.5,2.1,3.1,3.1,4.6c0.3-0.1,0.6-0.3,0.9-0.4
		C146.3,6.7,146.3,3.3,146.3,0z M193.6,195.9c-1.9-1-3.8-1.9-6-3c0,1.2,0,2.2,0,3.3c-1.1-1-2-1.7-2.9-2.5c0,0.2-0.1,0.3-0.1,0.5
		c-0.9,0-1.8,0-3.4,0c6,3.5,11.5,6.3,18.1,8c-1.1-1.4-1.8-2.4-2.6-3.3c0.1-0.2,0.4-0.6,0.5-0.9C195.8,197.2,194.6,196.5,193.6,195.9
		c1.2-0.1,2.5-0.1,3.8-0.1c0-0.4,0-0.8,0-1.3c1.1,0.1,2.1,0.2,3.5,0.4c-1.2-1.1-2.1-2-3.2-3c-0.8,2.7-2.5,1.9-4.1,1.4
		C193.6,194.2,193.6,195,193.6,195.9z M179.4,172.9c-0.1,0.3-0.1,0.5-0.2,0.8c2.1,3.9,17.2,7.8,22.9,5.9c-0.3-0.2-0.6-0.3-0.9-0.5
		c0.5-0.5,1-0.9,1.6-1.4c-0.9-0.4-1.6-0.8-2.4-1.1c0-0.2,0.1-0.5,0.1-0.7c5.5-0.5,11-0.9,16.4-1.4c0-0.1,0-0.3-0.1-0.4
		c-0.9-0.3-1.8-0.7-3.1-1.1c3.1-1,5.6-1.8,8.2-2.6c-0.1-0.3-0.2-0.5-0.2-0.8c-1.3,0.2-2.6,0.5-3.9,0.7c-0.5,0.1-1.4-0.3-1.4-0.1
		c-1.3,2.6-3.5-0.2-5.1,0.8c-1.6-1.9-3.1-0.2-4.7,0.1c-1.1,0.2-2.1,0.6-3.2,1c0,0,0.2,0.4,0.5,0.9c-2,0.9-3.5,3.2-6,1.4
		c-0.2-0.1-1,0.5-1.6,0.8c-0.6-0.4-1.2-0.7-1.5-0.9c-0.7,0.3-1.1,0.7-1.5,0.7c-2.7-0.2-5.4-0.5-8.2-0.9
		C183.3,173.8,181.4,173.3,179.4,172.9z M116.1,128.5c-0.1-0.3-0.2-0.5-0.3-0.8c-0.7-0.5-1.4-1.3-2.2-1.5c-1.1-0.3-1.4,0.5-1.9,1.5
		c-0.6,1.2-2.1,2.3-3.4,2.7c-1.7,0.5-3,0.9-3,3c-2-0.1-3.9-0.3-5.7-0.4c-0.1,0.2-0.2,0.5-0.2,0.7c1.5,0.7,3,1.9,4.5,1.9
		c4.9,0,9.9-0.4,14.8-0.8c2.2-0.2,4.3-0.7,6.5-1c0-0.2,0-0.5,0-0.7c-2-0.3-4.3,0-5.3-2.5c9.1-1.7,12.1-2.9,13-5.1
		c-1.1-0.1-2.2-0.1-3.4-0.2c-0.3,0.6-0.7,1.4-1.3,2.4c-0.4-0.8-0.7-1.4-1.1-2.1c-0.6,0.7-1.2,1.3-1.8,2.1c-0.4-0.8-0.7-1.5-0.8-1.6
		c-1.3,0.8-2.5,2-3.9,2.3c-0.9,0.2-2.1-0.8-3.4-1.3C117,127.2,116.6,127.9,116.1,128.5z M113.6,153.3c2.4,1.5,12.2-0.9,14.6-3.2
		c-1.3-0.5-2.7-0.9-4-1.4c-1.4-0.1-2.9-0.2-4.5-0.3c-0.1-0.7-0.1-1.2-0.2-2.1c-0.9,0.7-1.6,1.3-2.3,1.8
		C118.7,150.7,117,153.1,113.6,153.3z M200.4,191.4c2.8,4.3,10.4,4.5,12.7,0.8c-0.7,0-1.9,0.4-2.4-0.1
		C207.6,189.4,204,189,200.4,191.4z M113.3,185.6c-1.8-3-3.1-3.2-5.5-0.7c-3.1-2.5-3.1-2.5-4.9,0.7
		C106.5,185.6,109.8,185.6,113.3,185.6z M27.8,192.5c0.1-0.3,0.2-0.6,0.3-0.8c-1.1-0.6-2.3-1.3-3.5-1.9c-0.7,0.8-1.3,1.5-1.9,2.2
		c-0.9-0.8-1.8-1.6-2.9-2.4c-0.7,0.9-1.4,1.6-2,2.3c0.1,0.2,0.2,0.4,0.3,0.7C21.3,192.5,24.5,192.5,27.8,192.5z M129.1,68.3
		c-0.2,2.8,0.4,3.7,2.7,3.5c1.9-0.1,3.8-0.4,5.6-0.8c0.9-0.2,1.6-0.8,2.4-1.3c-2.3-0.1-3.2-0.2-3.7-1
		C133.7,72,131.4,70.1,129.1,68.3z M44,88.9c0.3,2.5,1.2,3.5,3.1,3.2c2-0.3,4.1-0.5,6.1-0.9c0.7-0.1,1.3-0.6,2.2-1.1
		c-1.7,0-2.8,0-4,0C49,92.3,46.6,90.4,44,88.9z M103.4,145.1c1.5,2.5,4,3.1,8.2,1.7c-0.4-0.7-0.7-1.4-1.3-2.5
		C108.2,147.6,105.7,143.7,103.4,145.1z M101.4,139.9c0-0.2,0.1-0.4,0.1-0.5c-2.7-1-5.5-1.9-8-2.8c-0.6,0.7-1.2,1.3-1.8,1.9
		c0.5,0.2,1,0.4,1.5,0.5C96,139.3,98.7,139.6,101.4,139.9z M117.4,167.1c-2.4-1.4-4.1-1.3-7.3,0.4
		C112.8,169.6,114.7,168.8,117.4,167.1z M96.1,183.1c1.1,0.5,2.4,1.1,3.8,1.5c0.5,0.2,1.2-0.2,1.8-0.3c-0.2-0.6-0.3-1.4-0.7-1.8
		c-0.4-0.3-1.2-0.4-1.7-0.3C98.2,182.4,97.1,182.8,96.1,183.1z M141.3,30.1c-0.3,0.4-0.6,0.7-0.9,1.1c1.5,1.3,3.1,2.6,4.6,3.9
		c0.2-0.3,0.5-0.6,0.7-0.8C144.3,32.8,142.8,31.5,141.3,30.1z M60.9,60c-0.6-2.7-2.2-3.9-5.1-3.7C57.4,57.4,59,58.6,60.9,60z
		 M203.7,182.1c1.8-0.1,3.3-0.3,4.9-0.4c0.1-2.4-2.5,0.8-2.3-1.5C205.2,180.2,203.8,179.8,203.7,182.1z M145.2,27.9
		c0.8-2.7-0.5-4.6-2.6-6C143.4,23.9,144.3,25.9,145.2,27.9z M218.8,184.2c-2-1.7-3.9-2.2-6.2-0.3C214.9,184,216.9,184.1,218.8,184.2
		z M58,48.1c0.9,1.8,1.8,3.5,2.9,5.6C61.6,50.7,59.9,49.3,58,48.1z M150.3,40.9c1.4-0.7,2.7-1.4,4.4-2.3
		C150.1,38.4,150.1,38.4,150.3,40.9z M66,64.8c1.3-0.5,2.5-1.1,4.3-1.8C65.9,62.6,65.8,62.6,66,64.8z"/>
</g>
<g id="XMLID_14_">
</g>
<g id="XMLID_15_">
</g>
<g id="XMLID_19_">
</g>
<g id="XMLID_25_">
</g>
<g id="XMLID_26_">
</g>
<g id="XMLID_27_">
</g>
</svg>
