<?xml version="1.0" encoding="utf-8"?>
<!-- Generator: Adobe Illustrator 19.0.0, SVG Export Plug-In . SVG Version: 6.00 Build 0)  -->
<svg version="1.1" id="Layer_1" xmlns="http://www.w3.org/2000/svg" xmlns:xlink="http://www.w3.org/1999/xlink" x="0px" y="0px"
	 viewBox="0 0 300 256.7" style="enable-background:new 0 0 300 256.7;" xml:space="preserve">
<style type="text/css">
	.st0{fill:#FFFFFF;}
</style>
<path id="XMLID_73_" class="st0" d="M84.4,108.4c0-0.4,0-0.7,0-1.1c0-9.1,0-18.2,0-27.3c0-18-0.1-36.1-0.2-54.1
	c0-7.9-0.1-15.7-0.2-23.6C84,1,84,1,85.3,1c21.7,0,43.4,0,65.1,0c1,0,1.3,0.2,1.3,1.2c0,13.4,0,26.7-0.1,40.1c0,1.6,0.4,2.6,1.7,3.5
	c0.3,0.2,0.7,0.8,0.7,1.2c-0.4,2,1.1,2.8,2.4,3.9c1.1,0.9,2.2,0.5,3.3,0.3c0.8-0.1,1.7-0.4,2.5-0.5c0.7,0,1.5,0.2,2.1,0.4
	c2.9,1.2,5.7,2.4,8.6,3.6c0.8,0.3,1.5,0.8,2.3,1c1.4,0.4,2.9,0.7,4.4,0.9c2,0.3,4.1,0.2,6.1,0.7c1.4,0.3,2.9,1.1,4,2.1
	c2.1,1.7,4.3,1.7,6.7,1.1c2.3-0.6,4.6-0.2,6.9,0.2c0.2,0,0.5,0.1,0.6,0.2c0.9,1.4,2.2,0.9,3.5,0.8c1.2-0.1,2.5,0.2,3.7,0.4
	c1.6,0.2,3,0.8,4.4,1.7c0.3,0.2,0.8,0.1,1.2,0c3.1-0.8,6.1-1.6,9.2-2.3c0.8-0.2,1.6-0.3,2.4-0.5c1-0.2,1.4,0.7,1.9,1.2
	c0.6,0.6,1,1.4,1.5,2c0.2,0.2,0.5,0.4,0.8,0.4c1.3-0.1,2.6,0.1,3.9-0.9c1.4-1.1,3.3-1.6,4.9-2.4c1.7-0.8,3.3-0.1,4.9,0.3
	c0.9,0.2,1.7,0.4,2.5-0.1c1.1-0.6,2.1-1.3,3.2-1.8c0.5-0.2,1.2-0.2,1.7-0.1c1.3,0.4,2.6,1.1,3.9,1.5c0.5,0.2,1.2-0.1,1.8-0.3
	c0.7-0.3,1.3-0.4,2,0.2c1.3,1.1,2.7,2.2,4.2,3.2c0.4,0.3,0.9,0.4,1.3,0.4c0.8,0.1,1.6,0.1,2.4,0c2.6-0.3,4.9,0.5,7.1,2
	c1.1,0.8,2.4,1.3,3.9,1.1c1.7-0.2,3.4,0,5.1,0c0.8,0,1.2,0.2,1.2,1.1c0,4,0.1,8,0.2,12c0.1,3.4,0.1,6.8,0.2,10.3
	c0.1,2.4-0.1,4.8,0.3,7.1c0.3,1.9,1.1,3.8,1.7,5.7c0.4,1.3,1.5,2,2.6,2.6c0.9,0.5,1.2,1.3,1.5,2.2c0.2,0.9,0.3,1.8,0.6,2.6
	c0.3,0.6,1,0.9,1.4,1.4c0.3,0.3,0.6,0.9,0.5,1.2c-0.4,2.5,0.5,4.3,2.3,6c0.6,0.6,0.7,1.8,1,2.8c0.4,1.7,0.8,3.4,1.2,5.2
	c0.1,0.3,0.1,0.8,0,1.1c-0.7,2.2-1.4,4.5-2,6.7c-0.1,0.3-0.1,0.7-0.1,1c-0.1,2.4-0.2,4.8-0.5,7.2c-0.1,0.7-0.6,1.4-1.2,1.8
	c-0.7,0.6-0.7,1.3-0.6,2.1c0.1,0.8,0.3,1.7,0.3,2.5c-0.1,1.5-0.4,3-0.5,4.5c-0.1,1.2-0.4,2.5-0.4,3.7c0,0.9-0.4,1.3-1.1,1.5
	c-1.1,0.4-2.2,0.9-3.4,1.2c-1.8,0.5-3.2,1.8-4.6,2.9c-0.4,0.3-0.8,0.6-1.2,1c-1,1-2.2,1-3.4,0.6c-1.6-0.5-2.9,0.2-4.3,0.6
	c-0.2,0.1-0.4,0.5-0.4,0.7c-0.1,0.8,0,1.7,0,2.5c0,0.7-0.2,1.2-0.8,1.6c-1.8,1.1-3.5,2.3-5.1,3.6c-0.5,0.4-0.9,1.1-1,1.7
	c-0.3,2.5-2,3.3-4.1,3.7c-1.7,0.3-3.4,0.4-5.1,0.6c-0.5,0.1-1,0.2-1.4,0.5c-1.4,1.2-2.7,2.5-4.1,3.6c-0.7,0.6-1.7,1-2.6,1.2
	c-2.4,0.5-4,2-5.5,3.6c-1.5,1.6-1.6,1.6-2.9-0.1c-0.1-0.1-0.2-0.3-0.3-0.5c-0.5-0.5-0.9-1.1-1.9-0.9c-1.3,0.3-2.7,0.2-4,0.2
	c-0.9,0-1.3,0.4-1.4,1.2c-0.1,2.1-0.3,4.3-0.4,6.4c0,0.6-0.1,1-0.8,1.4c-1.3,0.7-2.6,1.5-3.7,2.5c-0.8,0.6-1.4,1.4-1.9,2.3
	c-0.6,1.1-1.5,1.1-2.5,1c-0.7-0.1-1.5-0.2-2.3-0.3c0,0.3-0.1,0.4-0.1,0.6c0.3,1.8-0.8,3.2-1.5,4.7c-0.3,0.7-1,1-1.8,1
	c-1.1,0.1-2.2,0.2-3.3,0.3c-0.1,1.2,0.1,2,1.1,2.6c1.2,0.7,1.5,0.7,0.3,2.2c-0.5,0.6-0.9,1.4-1.2,2.2c-0.8,2.4-1.5,4.8-3.8,6.5
	c0.8,0.7,1.4,1.1,1.9,1.7c0.2,0.3,0.3,0.9,0.2,1.2c-0.4,0.9-0.8,1.9-1.4,2.7c-0.7,1.1-0.3,2.2,0,3.3c0.6,2.2,1.2,4.3,1.9,6.5
	c0.5,1.8,0.6,3.7,0.5,5.5c-0.1,0.9,0.3,1.5,0.9,2c0.4,0.4,0.8,0.8,1.3,1.1c0.9,0.5,0.9,1.4,1,2.2c0.2,0.9,0.3,1.8,0.4,2.7
	c0.1,0.7-0.1,1.2-0.9,1.5c-1.3,0.6-2.6,1.3-3.8,2.1c-0.9,0.6-1.7,0.7-2.7,0c-1.1-0.8-2.3-1.6-3.5-2c-2-0.6-4.2-1.1-6.3-1.3
	c-1-0.1-2.1,0.3-3,0.8c-1.6,0.8-3.1,0.4-4.6-0.2c-3.4-1.2-6.8-2.6-10.2-3.8c-1.7-0.6-3.4-1.1-5.2-1.4c-2.5-0.4-4.2-1.8-5.9-3.5
	c-0.3-0.3-0.7-0.5-1.1-0.5c-1,0.1-1.7-0.2-2.3-1.1c-0.5-0.7-1.1-1.4-1.7-2c-1.3-1.4-1.8-3.2-2.4-4.9c-0.7-2.1-2-3.7-3.5-5.2
	c-0.5-0.4-0.9-0.9-1.4-1.4c-0.2-0.3-0.5-0.6-0.5-1c-0.2-1.9-0.2-3.8-0.4-5.8c-0.2-1.9-0.7-3.7-0.9-5.5c-0.2-2-1.6-3.1-2.9-4.3
	c-1.3-1.2-2.6-2.4-3.8-3.6c-0.4-0.4-0.8-1-1-1.6c-0.4-1.2-0.7-2.4-1.1-3.6c-0.2-0.8-0.7-1.3-1.4-1.8c-1.3-0.8-2.7-1.7-3.8-2.8
	c-0.9-0.9-1.5-2.2-2.3-3.4c-1.6-2.4-3.1-4.8-4.7-7.2c-0.8-1.3-1.6-2.7-2.3-4.1c-1-2.1-2.6-3.7-4.6-4.9c-1.7-1-2.2-2.6-2.9-4.2
	c-0.3-0.6-0.4-1.4-0.8-1.9c-0.3-0.4-0.9-0.6-1.4-0.7c-0.9-0.3-1.9-0.6-2.8-0.8c-1.1-0.2-1.8-1-2.3-1.9c-1.2-2.2-2.3-4.4-3.5-6.5
	c-0.2-0.3-0.7-0.5-1.1-0.5c-2,0-4.1,0-6.1,0c-6.5,0-13.1,0-19.6,0c-0.8,0-1.3,0.2-1.5,1c-0.1,0.4-0.4,0.7-0.5,1.1
	c-0.5,1.9-1.9,2.8-3.5,3.7c-0.3,0.2-0.7,0.4-1,0.6c-0.4,0.3-0.7,0.5-0.4,1.1c0.5,1,0,1.7-0.5,2.6c-1,1.8-2.8,1.9-4.4,2.6
	c-2.1,0.9-4.3,1.8-6.4,2.7c-0.8,0.4-1.5,0.4-2.3,0.1c-1.1-0.5-2.3-0.7-3.4-1.2c-1.6-0.6-3.2-1.4-4.8-2.1c-1.4-0.6-2.8-1.2-4.2-1.6
	c-2.4-0.6-4.2-2.1-6-3.6c-1.4-1.2-2.9-2.3-4.5-3.3c-1.8-1.1-3.3-2.3-4.7-4c-2.5-3.2-4.6-6.7-6.5-10.3c-1-1.9-1.6-3.9-1.6-6.1
	c0-1.2-0.2-2.5-0.4-3.7c-0.1-0.4-0.5-0.8-0.9-1.1c-1.6-1.4-3.2-2.9-4.9-4.3c-0.5-0.4-1-0.7-1.6-1c-2.6-1.2-5.2-2.4-7.7-3.7
	c-0.5-0.2-0.8-0.7-1.2-1.2c-1.1-1.3-2-2.7-3.2-3.8c-1-1-2.1-1.7-3.3-2.5c-0.9-0.7-1.9-1.2-2.9-1.8c-1.7-1-2.6-2.7-3.9-4.2
	c-0.6-0.7-1.2-1.5-1.8-2.2c-1.6-2.4-2.4-5.1-3.3-7.7c-0.3-0.9-0.6-1.9-0.9-2.8c-0.2-0.7-0.1-1.1,0.8-1.1c4.7,0,9.3-0.1,14-0.2
	c6.7-0.1,13.5,0,20.2-0.3c1.9-0.1,2.9,0.6,3.6,2c0.7,1.2,1.8,1.1,2.8,1.2c0.6,0,1.1-0.2,1.7-0.2c13.3,0,26.6,0,40,0
	C83.5,108.4,83.9,108.4,84.4,108.4z"/>
<g id="XMLID_14_">
</g>
<g id="XMLID_15_">
</g>
<g id="XMLID_16_">
</g>
<g id="XMLID_17_">
</g>
<g id="XMLID_18_">
</g>
<g id="XMLID_19_">
</g>
</svg>
