<?xml version="1.0" encoding="utf-8"?>
<!-- Generator: Adobe Illustrator 19.0.0, SVG Export Plug-In . SVG Version: 6.00 Build 0)  -->
<svg version="1.1" id="Layer_1" xmlns="http://www.w3.org/2000/svg" xmlns:xlink="http://www.w3.org/1999/xlink" x="0px" y="0px"
	 viewBox="0 0 215.6 201.7" style="enable-background:new 0 0 215.6 201.7;" xml:space="preserve">
<style type="text/css">
	.st0{fill:#FFFFFF;}
</style>
<g id="XMLID_9_">
	<path id="XMLID_10_" class="st0" d="M147.5,160.4c16.5,0,32.9,0,49.5,0c-0.8-2.2-1.6-4.4-2.6-7.2c7.3,3.8,14,7.3,21.3,11.1
		c-7.2,3.7-14,7.1-21.2,10.8c1-2.7,1.8-4.9,2.7-7.4c-26.4,0-52.4,0-78.8,0c0,11.2,0,22.5,0,34.1c-2.4,0-4.4,0-6.7,0
		c0-11.3,0-22.6,0-34.1c-1.1-0.1-1.9-0.2-2.8-0.2c-22.5,0-44.9,0-67.4,0c-1.9,0-3.3,0.4-4.1,2.2c-1.7,3.6-4.4,4.7-8.5,4.5
		C19.4,173.7,10,174,0,174c2.3-2.9,4-5.5,6.1-7.8c1.4-1.6,1.2-2.7-0.1-4.1c-2-2.3-3.7-4.8-6-7.7c1.4,0,2.3,0,3.2,0
		c9.4,0,18.7,0.1,28.1-0.1c2.1,0,3.7,0.4,4.6,2.4c1.5,3.5,4.2,4.1,7.8,4.1c21.4-0.2,42.8-0.1,64.2-0.1c1.2,0,2.4,0,4.6,0
		c-3.1-2.5-5.5-4.4-8-6.4c-1.2,0.6-2.5,1.2-3.8,1.8c-0.2-0.2-0.4-0.5-0.6-0.7c2.3-1.9,4.5-3.8,6.9-5.7c-1.6-1.3-2.9-2.3-4.2-3.4
		c0.1-0.1,0.1-0.3,0.2-0.4c1.3,0.5,2.5,1,4.5,1.7c0.2-7.3,5-13.5,2.8-20.9c-6.3,0.2-12.6-0.6-17.9-4.3c-3.5-2.4-6.9-3.9-11-4.4
		c-0.9-0.1-1.7-1.5-3.1-2.9c3.1-0.3,5.4-0.5,4.8-3c-0.7-1.1-1.4-2.2-2.2-3.6c-0.2,0.1-0.7,0.5-1.4,1c-0.6-1.2-1.1-2.3-1.9-4
		c-0.5,2.7-0.9,4.9-1.3,7.1c-0.2,0-0.5,0-0.7,0c-0.2-1.7-0.5-3.4-0.8-5.4c-0.6,0.3-1.2,0.5-2.3,0.9c-0.5-2.6-1-5.2-1.4-7.3
		c-0.9-0.4-1.8-0.7-2.4-1.3c-1.1-1-2.5-1.9-2.9-3.2c-1.3-3.4-3.8-3.5-7-3.7c-7.5-0.6-13.8-4.1-18.7-9.9c-2.1-2.5-1.7-4.3,0.9-6.1
		c-0.6-2.3-1.4-4.5-1.8-6.8c-0.7-3.4,2.4-3.1,4.7-4.2c-3.3-2.7-4.2-6-3.2-10.1c1.2-0.3,2.5-0.6,3.8-0.8c-0.5-1.3-1-2.5-1.4-3.9
		c-1.2-4.4-0.8-4.9,3.8-5.2c-1-1.8-2.1-3.5-3-5.3c-1.5-3.4-1.3-3.7,2.5-4.9c-2.4-2-4.4-4.1-6.9-5.6c-0.8-0.5-3-0.1-3.8,0.7
		c-2.3,2.2-4.6,4.6-6.3,7.3c-2.4,3.9-4.3,8.2-6.4,12.3c-2.2-5.4-0.1-12.3,5.6-19.1c-2.6,0.6-6.2,4.6-9.1,10.4
		c-2.1,4.2-4.2,8.5-6.3,12.9c-2.1-9,1.7-26.2,10.7-27.4c-1.2-0.3-1.9-0.4-2.5-0.5c-0.2-0.2-0.3-0.5-0.5-0.7c3.1-1.9,5.9-4.2,9.2-5.6
		c3.2-1.4,6.8-1.9,11-3c-1.7-0.2-2.8-0.3-4.5-0.5c6.4-2.3,12-1.8,17.2,0c0.7-0.5,1.1-1.1,1.5-1c14.7,1.5,26.7,7.7,35,20.3
		c5.5,8.4,9.8,17.2,11.5,27.1c0.1,0.7,0.2,1.3,0.3,2c0.2,3.7,3,5.6,6.7,4.6c2.6-0.7,5.2-1.1,7.8-1.9c7.1-2,11.5-6.3,13.3-13.8
		c2-8.1,4.4-16.1,7.3-24c2.2-6.2,6.6-11.1,12.4-14.4c-1.3-3.3-0.5-4.5,3.1-5.1c1.4-0.2,2.8-0.4,4.2-1.1c-2.2-0.2-4.4-0.3-6.5-0.7
		c-1-0.2-2.4-0.8-2.7-1.6c-0.3-0.9,0.6-2.1,1-3.1c0.3-0.9,0.7-1.7,1.1-2.8c1.1,0.3,2.2,0.6,3.6,1c0.3-0.9,0.6-1.7,0.9-2.7
		c1.7,1.6,3.4,2.9,5.5,0.8c0.1-0.1,1.4,0.9,2.1,1.4c1,0.7,0.7,3.7,3.3,2c0.1-0.1,0.9,1.1,1.4,1.6c2.1,2.4,6,3.6,5.6,7.9
		c0,0.3,1.5,0.8,2.3,1.2c0.7,0.3,1.5,0.5,2.2,1.2c-2.4,0.6-4.8,1.2-7.4,1.8c0.6,2.7,4.5,2.5,4,5.9c-0.5,3.4-3.2,3-4.6,3.7
		c2.4,5.6,5.3,11,6.9,16.8c4.3,15.2,4.1,30.5-1.9,45.3c-2.9,7.2-8.8,11.9-14.8,16.3c-4.4,3.2-9,6.1-13.5,9.2c-0.8,0.5-1.7,1.2-1.9,2
		c-1.4,4.9-5,8-8.5,11.3c-0.3,0.3-0.6,0.5-0.9,0.8c-6.8,7-6.5,6.8-2,15.4c1.8,3.4,3.8,6.7,5.6,10.2c1.4,2.6,3.5,3.9,6.7,3
		C146.9,157,147.9,157.4,147.5,160.4z M123.1,126.4c-2.8,1.6-5.6,3-8.2,4.8c-0.7,0.5-0.6,2.3-0.8,3.5c-0.1,0.7-0.3,1.3-0.4,2
		c-1,4.5-2.1,9-3,13.4c-0.1,0.7-0.2,1.6,0.1,2.1c2.1,2.8,4.9,4.8,8.6,5c2.2,0.1,4.3,0.3,6.5,0.6c0.5,0.1,0.8,0.6,1.3,0.9
		c-0.1,0.2-0.2,0.4-0.3,0.7c-3.5-0.2-7.1-0.4-10.6-0.6c0.7,1,1.5,1.8,2.4,1.8c5.4,0.1,10.9,0.1,16.4,0.1c-0.3-1.3-0.5-2.5-0.7-3.7
		c-2.2,0.8-4.3,1.7-6.4,2.5c-0.2-0.4-0.3-0.8-0.5-1.3c1.2-0.4,2.6-0.6,3.6-1.3c1-0.8,1.9-2.2,2.2-3.4c0.1-0.4-1.7-1.5-2.8-2
		c-1.6-0.7-3.4-1.1-5.1-1.6c0.1-0.2,0.2-0.4,0.2-0.6c2,0,4,0,6.5,0c-1.5-2.7-2.8-4.9-4-7.2C125.3,137.5,121.5,133.1,123.1,126.4z"/>
</g>
<g id="XMLID_31_">
</g>
<g id="XMLID_32_">
</g>
<g id="XMLID_33_">
</g>
<g id="XMLID_34_">
</g>
<g id="XMLID_35_">
</g>
<g id="XMLID_36_">
</g>
</svg>
