<?xml version="1.0" encoding="utf-8"?>
<!-- Generator: Adobe Illustrator 19.0.0, SVG Export Plug-In . SVG Version: 6.00 Build 0)  -->
<svg version="1.1" id="Layer_1" xmlns="http://www.w3.org/2000/svg" xmlns:xlink="http://www.w3.org/1999/xlink" x="0px" y="0px"
	 viewBox="0 0 50 35.5" style="enable-background:new 0 0 50 35.5;" xml:space="preserve">
<style type="text/css">
	.st0{opacity:0.9; fill: #323133;}
</style>
<g id="XMLID_1_">
	<path id="XMLID_17_" class="st0" d="M10.1,32.8c4.1-1.9,7.5-5.7,8.7-9.5c0.4-1.3,0.6-2.6,0.6-3.8c0-0.8-0.1-1.7-0.3-2.5
		c-2,2.3-4.8,3.6-8.4,3.6c-6.1,0-10.1-3.6-10.1-9.9c0-6,4.4-10,10.8-10c4.1,0,7.3,1.5,9.1,4.3c1.6,2.2,2.9,6.2,2.9,11
		c0,7.7-3.9,15.1-12.2,18.9L10.1,32.8z M36.6,32.8c4.1-1.9,7.5-5.7,8.7-9.5c0.4-1.3,0.6-2.6,0.6-3.8c0-0.8-0.1-1.7-0.3-2.5
		c-2,2.3-4.8,3.6-8.4,3.6C31.1,20.6,27,17,27,10.7c0-6,4.4-10,10.9-10c4,0,7.3,1.5,9.1,4.3c1.6,2.2,2.9,6.2,2.9,11
		c0,7.7-3.9,15.1-12.3,18.9L36.6,32.8z"/>
</g>
<g id="XMLID_15_">
</g>
<g id="XMLID_16_">
</g>
<g id="XMLID_20_">
</g>
<g id="XMLID_21_">
</g>
<g id="XMLID_22_">
</g>
<g id="XMLID_23_">
</g>
<g id="XMLID_24_">
</g>
</svg>
