<?xml version="1.0" encoding="utf-8"?>
<!-- Generator: Adobe Illustrator 19.0.0, SVG Export Plug-In . SVG Version: 6.00 Build 0)  -->
<svg version="1.1" id="Layer_1" xmlns="http://www.w3.org/2000/svg" xmlns:xlink="http://www.w3.org/1999/xlink" x="0px" y="0px"
	 viewBox="0 0 50 35.5" style="enable-background:new 0 0 50 35.5;" xml:space="preserve">
<style type="text/css">
	.st0{opacity:0.9;}
</style>
<g id="XMLID_1_" class="st0">
	<path id="XMLID_16_" d="M13.6,2.4C9.6,4.3,6.1,8.1,5,11.9c-0.4,1.3-0.6,2.6-0.6,3.8c0,0.8,0.1,1.7,0.3,2.5c2-2.3,4.8-3.6,8.4-3.6
		c6.1,0,10.1,3.6,10.1,9.9c0,6-4.4,10-10.9,10c-4,0-7.3-1.5-9.1-4.3C1.6,28,0.3,24,0.3,19.2c0-7.7,3.9-15.1,12.3-18.9L13.6,2.4z
		 M40.2,2.4c-4.1,1.9-7.5,5.7-8.7,9.5c-0.4,1.3-0.6,2.6-0.6,3.8c0,0.8,0.1,1.7,0.3,2.5c2-2.3,4.8-3.6,8.4-3.6
		c6.1,0,10.1,3.6,10.1,9.9c0,6-4.4,10-10.8,10c-4.1,0-7.3-1.5-9.1-4.3c-1.6-2.2-2.9-6.2-2.9-11c0-7.7,3.9-15.1,12.2-18.9L40.2,2.4z"
		/>
</g>
<g id="XMLID_15_">
</g>
<g id="XMLID_19_">
</g>
<g id="XMLID_20_">
</g>
<g id="XMLID_21_">
</g>
<g id="XMLID_22_">
</g>
<g id="XMLID_23_">
</g>
</svg>
