<?xml version="1.0" encoding="utf-8"?>
<!-- Generator: Adobe Illustrator 19.0.0, SVG Export Plug-In . SVG Version: 6.00 Build 0)  -->
<svg version="1.1" id="Layer_1" xmlns="http://www.w3.org/2000/svg" xmlns:xlink="http://www.w3.org/1999/xlink" x="0px" y="0px"
	 viewBox="0 0 240.7 240.3" style="enable-background:new 0 0 240.7 240.3;" xml:space="preserve">
<style type="text/css">
	.st0{fill:#43856d;}
</style>
<g id="XMLID_4_">
	<path id="XMLID_3_" class="st0" d="M142,226.6v-66.8h21.2c3.2,0,5.9-2.4,6.3-5.5l4.1-32.2c0.4-3.5-2-6.6-5.5-7.1
		c-0.3,0-0.5-0.1-0.8,0H142v-14.2c0-7.7,1.4-9.4,9.5-9.4h17c3.5,0,6.3-2.8,6.3-6.3V56.3c0-3.2-2.3-5.8-5.5-6.3
		c-5-0.7-15.6-1.3-25.5-1.3c-28.8,0-47.5,18.6-47.5,48.9v17.4H74.9c-3.5,0-6.3,2.8-6.3,6.3v32.2c0,3.5,2.9,6.3,6.3,6.3h21.3V226
		c-48-11-83-54.1-83-104.7c0-59.5,48-107.7,107.1-107.7s107.1,48.2,107.1,107.7C227.5,172.9,191.2,216.5,142,226.6 M120.4,1
		C54.2,1,0.6,54.9,0.6,121.3c0,59.4,43.1,109.5,101,118.7c3.5,0.6,6.7-1.8,7.2-5.2c0.1-0.3,0.1-0.7,0.1-1v-80.4
		c0-3.5-2.8-6.3-6.3-6.3H81.2v-19.5h21.3c3.5,0,6.3-2.8,6.3-6.3l0,0V97.5c0-23.2,13.1-36.2,34.9-36.2c6.5,0,13.3,0.3,18.4,0.7v16.7
		h-10.6c-15.7,0-22.2,7.8-22.2,22v20.5c0,3.5,2.8,6.3,6.3,6.3h24.5l-2.5,19.4h-22c-3.5,0-6.3,2.8-6.3,6.3v80.8
		c0,3.8,3.4,6.8,7.2,6.2c59.1-8.1,103.6-58.8,103.6-119.2C240.1,54.8,186.5,1,120.4,1"/>
</g>
<g id="XMLID_31_">
</g>
<g id="XMLID_32_">
</g>
<g id="XMLID_33_">
</g>
<g id="XMLID_34_">
</g>
<g id="XMLID_35_">
</g>
<g id="XMLID_36_">
</g>
</svg>
